<svg width="150" height="150" viewBox="0 0 150 150" fill="none" xmlns="http://www.w3.org/2000/svg">
<rect x="9.47357" y="93.2689" width="28.4211" height="27.9807" rx="9.49073" fill="#393B3D"/>
<path d="M0 135.815C0 130.573 4.24914 126.324 9.49073 126.324H37.8777C43.1193 126.324 47.3685 130.573 47.3685 135.815V143.314C47.3685 146.808 44.5357 149.641 41.0413 149.641H6.32716C2.83277 149.641 0 146.808 0 143.314V135.815Z" fill="#393B3D"/>
<rect x="112.105" width="28.4211" height="27.9807" rx="9.49073" fill="#393B3D"/>
<path d="M102.631 42.5459C102.631 37.3043 106.881 33.0552 112.122 33.0552H140.509C145.751 33.0552 150 37.3043 150 42.5459V50.0453C150 53.5397 147.167 56.3724 143.673 56.3724H108.959C105.464 56.3724 102.631 53.5396 102.631 50.0453V42.5459Z" fill="#393B3D"/>
<path d="M23.684 74.9304C23.684 58.0543 33.969 24.3021 75.1091 24.3021" stroke="#393B3D" stroke-width="12.6543" stroke-linecap="round"/>
<path d="M91.1468 21.0495C94.3474 22.8687 94.3474 27.4813 91.1468 29.3005L69.5862 41.5556C66.4228 43.3537 62.4959 41.0689 62.4959 37.4301L62.4959 12.9199C62.4959 9.28108 66.4228 6.99625 69.5862 8.79438L91.1468 21.0495Z" fill="#393B3D"/>
<path d="M126.316 76.6762C126.316 93.5523 116.031 127.305 74.8907 127.304" stroke="#393B3D" stroke-width="12.6543" stroke-linecap="round"/>
<path d="M59.3632 130.557C56.1627 128.738 56.1626 124.125 59.3632 122.306L80.9238 110.051C84.0872 108.253 88.0141 110.538 88.0141 114.176L88.0141 138.687C88.0141 142.325 84.0873 144.61 80.9238 142.812L59.3632 130.557Z" fill="#393B3D"/>
</svg>
