<svg width="100" height="100" viewBox="0 0 100 100" fill="none" xmlns="http://www.w3.org/2000/svg">
<path d="M26.524 53.082L23.698 45.09C23.53 44.67 23.35 44.178 23.158 43.614C22.978 43.05 22.804 42.438 22.636 41.778C22.468 42.45 22.288 43.074 22.096 43.65C21.916 44.214 21.742 44.706 21.574 45.126L18.766 53.082H26.524ZM35.596 63H31.402C30.934 63 30.55 62.892 30.25 62.676C29.962 62.448 29.746 62.16 29.602 61.812L27.838 56.826H17.434L15.67 61.812C15.55 62.112 15.34 62.388 15.04 62.64C14.74 62.88 14.362 63 13.906 63H9.67603L19.882 36.882H25.408L35.596 63Z" fill="white"/>
<path d="M61.1074 36.882V63H58.3174C57.8974 63 57.5434 62.934 57.2554 62.802C56.9674 62.658 56.6854 62.418 56.4094 62.082L43.3954 45.522C43.4314 45.942 43.4554 46.356 43.4674 46.764C43.4914 47.172 43.5034 47.55 43.5034 47.898V63H38.7334V36.882H41.5774C41.8054 36.882 41.9974 36.894 42.1534 36.918C42.3214 36.93 42.4714 36.972 42.6034 37.044C42.7354 37.104 42.8614 37.188 42.9814 37.296C43.1014 37.404 43.2334 37.548 43.3774 37.728L56.4814 54.36C56.4334 53.904 56.3974 53.466 56.3734 53.046C56.3494 52.614 56.3374 52.206 56.3374 51.822V36.882H61.1074Z" fill="white"/>
<path d="M79.1051 52.956V63H73.7051V52.956L64.2191 36.882H68.9711C69.4391 36.882 69.8111 36.996 70.0871 37.224C70.3751 37.44 70.6031 37.722 70.7711 38.07L75.0551 46.296C75.3431 46.848 75.6011 47.364 75.8291 47.844C76.0691 48.324 76.2791 48.804 76.4591 49.284C76.6271 48.804 76.8191 48.324 77.0351 47.844C77.2631 47.352 77.5151 46.836 77.7911 46.296L82.0391 38.07C82.1831 37.782 82.3991 37.512 82.6871 37.26C82.9751 37.008 83.3471 36.882 83.8031 36.882H88.5911L79.1051 52.956Z" fill="white"/>
<path d="M26.3661 67.5569L23.5371 71.2288C23.3689 71.4218 23.1887 71.6478 22.9965 71.907C22.8163 72.1661 22.6421 72.4473 22.4739 72.7505C22.3058 72.4418 22.1256 72.1551 21.9334 71.8904C21.7532 71.6313 21.579 71.4052 21.4108 71.2123L18.5998 67.5569H26.3661ZM35.4479 63H31.2494C30.7809 63 30.3965 63.0496 30.0961 63.1489C29.8078 63.2536 29.5916 63.3859 29.4474 63.5458L27.6815 65.8367H17.2663L15.5004 63.5458C15.3803 63.408 15.1701 63.2812 14.8698 63.1654C14.5694 63.0551 14.191 63 13.7346 63H9.5L19.717 75H25.2489L35.4479 63Z" fill="url(#paint0_linear)"/>
<path d="M60.9867 75V63H58.1937C57.7732 63 57.4188 63.0303 57.1305 63.091C56.8422 63.1571 56.5599 63.2674 56.2836 63.4218L43.2556 71.0303C43.2917 70.8374 43.3157 70.6471 43.3277 70.4597C43.3517 70.2722 43.3637 70.0986 43.3637 69.9387V63H38.5886V75H41.4357C41.6639 75 41.8561 74.9945 42.0123 74.9835C42.1805 74.9779 42.3306 74.9586 42.4628 74.9256C42.5949 74.898 42.7211 74.8594 42.8412 74.8098C42.9613 74.7602 43.0935 74.694 43.2376 74.6113L56.3557 66.9697C56.3077 67.1792 56.2716 67.3804 56.2476 67.5734C56.2236 67.7719 56.2115 67.9593 56.2115 68.1358V75H60.9867Z" fill="url(#paint1_linear)"/>
<path d="M79.0038 67.6147V63H73.598V67.6147L64.1018 75H68.8589C69.3274 75 69.6998 74.9476 69.9761 74.8429C70.2644 74.7436 70.4926 74.6141 70.6608 74.4542L74.9494 70.6747C75.2377 70.4211 75.496 70.184 75.7243 69.9635C75.9645 69.7429 76.1748 69.5224 76.355 69.3019C76.5231 69.5224 76.7153 69.7429 76.9316 69.9635C77.1598 70.1895 77.4121 70.4266 77.6884 70.6747L81.941 74.4542C82.0851 74.5865 82.3013 74.7105 82.5897 74.8263C82.878 74.9421 83.2504 75 83.7068 75H88.5L79.0038 67.6147Z" fill="url(#paint2_linear)"/>
<defs>
<linearGradient id="paint0_linear" x1="49" y1="75" x2="49" y2="63" gradientUnits="userSpaceOnUse">
<stop stop-color="white" stop-opacity="0"/>
<stop offset="0.907552" stop-color="white" stop-opacity="0.15"/>
<stop offset="1" stop-color="white" stop-opacity="0"/>
</linearGradient>
<linearGradient id="paint1_linear" x1="49" y1="75" x2="49" y2="63" gradientUnits="userSpaceOnUse">
<stop stop-color="white" stop-opacity="0"/>
<stop offset="0.907552" stop-color="white" stop-opacity="0.15"/>
<stop offset="1" stop-color="white" stop-opacity="0"/>
</linearGradient>
<linearGradient id="paint2_linear" x1="49" y1="75" x2="49" y2="63" gradientUnits="userSpaceOnUse">
<stop stop-color="white" stop-opacity="0"/>
<stop offset="0.907552" stop-color="white" stop-opacity="0.15"/>
<stop offset="1" stop-color="white" stop-opacity="0"/>
</linearGradient>
</defs>
</svg>
