<svg width="100" height="100" viewBox="0 0 100 100" fill="none" xmlns="http://www.w3.org/2000/svg">
<path fill-rule="evenodd" clip-rule="evenodd" d="M25.2113 26.2113V73.9859H74.7887V26.2113H25.2113ZM23.4085 19C20.4214 19 18 21.4214 18 24.4085V75.7887C18 78.7757 20.4214 81.1972 23.4085 81.1972H76.5915C79.5786 81.1972 82 78.7757 82 75.7887V24.4085C82 21.4214 79.5786 19 76.5915 19H23.4085Z" fill="black"/>
<path d="M51.09 30L52.9691 30.2232C53.0724 29.3535 52.5654 28.5265 51.7434 28.2241C50.9215 27.9217 49.9994 28.2228 49.5144 28.952L51.09 30ZM33.7847 56.0192L32.209 54.9713C31.8067 55.5762 31.7862 56.358 32.1563 56.9832C32.5264 57.6083 33.2217 57.9664 33.9455 57.9047L33.7847 56.0192ZM52.2699 54.4423L54.149 54.6655L54.4229 52.3595L52.1091 52.5568L52.2699 54.4423ZM50.3034 71L48.4243 70.7768C48.3206 71.6502 48.8323 72.48 49.6594 72.7793C50.4864 73.0787 51.4107 72.7687 51.89 72.0313L50.3034 71ZM67.2154 44.9808L68.802 46.012C69.1963 45.4054 69.2102 44.6271 68.8378 44.0068C68.4654 43.3864 67.7719 43.0328 67.0511 43.0956L67.2154 44.9808ZM49.1235 46.5577L47.2444 46.3345L46.97 48.6449L49.2878 48.4429L49.1235 46.5577ZM49.5144 28.952L32.209 54.9713L35.3603 57.0672L52.6656 31.048L49.5144 28.952ZM33.9455 57.9047L52.4308 56.3278L52.1091 52.5568L33.6238 54.1338L33.9455 57.9047ZM50.3908 54.2191L48.4243 70.7768L52.1825 71.2232L54.149 54.6655L50.3908 54.2191ZM51.89 72.0313L68.802 46.012L65.6288 43.9495L48.7168 69.9687L51.89 72.0313ZM67.0511 43.0956L48.9592 44.6725L49.2878 48.4429L67.3798 46.8659L67.0511 43.0956ZM51.0026 46.7809L52.9691 30.2232L49.2109 29.7768L47.2444 46.3345L51.0026 46.7809Z" fill="black"/>
</svg>
