<svg id="Layer_1" data-name="Layer 1" xmlns="http://www.w3.org/2000/svg" viewBox="0 0 289.61798 314.69663"><defs><style>.cls-1{fill:#3a3b3d;}.cls-2{fill:#fff;}</style></defs><path class="cls-1" d="M39.33706,48.33708c-.47271.06992-4.15173.67389-5.764,3.84268a6.69425,6.69425,0,0,0-.70788,3.03373l.01658,210.6972c.08246.47069.78407,4.13234,3.99463,5.65979a6.69422,6.69422,0,0,0,3.05147.627l209.2046-.18019c.4772-.025,4.19678-.27935,6.10074-3.282a6.69424,6.69424,0,0,0,.99084-2.95344l.13469-210.1616c-.03333-.4767-.35231-4.19129-3.38759-6.04273a6.69406,6.69406,0,0,0-2.97023-.93931Z"/><polygon class="cls-2" points="10.517 150.876 10.517 153.91 11.022 154.921 11.882 155.831 12.944 156.287 13.298 156.719 15.674 156.719 16.028 156.084 17.393 155.528 18.404 154.416 18.404 153.253 18.404 150.876 17.646 149.41 16.433 148.551 12.691 148.551 11.174 149.461 10.517 150.876"/><path class="cls-2" d="M17.69662,157.80339l-.70788-.751-1.31458-.33331h-2.3764l-1.56745.57868-.809,1.264-.40448,1.70667v4.10791l1.21344,1.56744.75843.455v5.96631h1.5169l.25281-3.79212.55615-.10113.25281.65729v3.236h1.41852v-6.06738l1.31183-.65735.60675-1.09827v-5.07025Zm-4.4494,3.64044V163.264l-.25281.91016-.85956.20221-.40454-.75842v-2.67975l.40454-.45508h.35389l.75848.25281Zm3.94379,1.92133-.30335.75842-.45508.25281-.60675-.35394a8.35021,8.35021,0,0,1,0-1.59266,6.83348,6.83348,0,0,0,0-1.441l.60675-.50561h.40448l.35395.809Z"/><polygon class="cls-2" points="140.966 5.933 141.202 5.427 142.079 4.685 142.989 4.449 146.022 4.449 147 4.955 147.775 5.596 148.213 6.539 148.382 8.022 148.382 10.112 147.539 11.427 146.494 12.067 146.528 12.708 143.292 12.708 142.551 11.966 141.539 11.461 140.966 10.618 140.663 9.742 140.663 7.82 140.966 5.933"/><polygon class="cls-2" points="142.551 12.708 142.551 11.966 143.292 12.708 142.551 12.708"/><path class="cls-2" d="M152.12362,16.34831l-.47192-1.2135-.809-1.11236-1.33142-.84266-2.03937-.47192-.95117-.13977-3.97016.13977-1.88763.16852-1.58429.50561-1.34833,1.11237-.74157,1.5506-.30335,1.4494-.13483,2.25842.13483,2.25843.809,1.55059,1.382,1.07862.50562.50561.16851.26972V34.382h4.62922V27.809l.34271-.16858.38763.03375.30335.06738h4.29779V25.11235l.96063-.47192.84271-.94379.64044-.8764.40448-.53937v-4.382ZM140.5281,22.28087h-.97754v-4.7865h.97754Zm8.98316,0h-.97754v-4.7865h.97754Z"/><polygon class="cls-2" points="145.011 34.382 144.91 27.674 149.511 27.742 149.511 34.382 145.011 34.382"/><path class="cls-2" d="M285.64047,159.30339l-.60675-.77533-1.2135-.84265-.64044-.20227-1.56745-.60675-2.309-.15729h-3.53931l.30335-.55054.91009-.20227.91016-.94384.60675-1.07862v-2.86517l-.20227-.64044-.43823-.809-.77527-.74158-.9101-.50562h-3.03369l-.91015.30341-1.11237,1.04492-.60669,1.11237v2.35956l.37079,1.24719.94379,1.2135,1.01123.37079.3034.5393h-1.55059l-3.26966.30335-2.52807.57306-1.41571.74157-1.31464,1.71912-.30335,1.82019L262.618,163.618l.43817,1.34832.91009,1.2135,1.41578.70783,1.11236.40454.13483,5.08984h7.31457v-3.30334l.13483-.43823.57306-.13483.26965.236.06739,3.64044h7.4663v-5.12359l.45508-.16852,1.01123-.50562s1.41571-1.04492,1.618-1.2135a7.87068,7.87068,0,0,0,.74158-1.07861v-3.37079Zm-18.16858,4.65167-.42133.3371h-.2865l-.13482-.37079v-2.191l.26965-.236h.37079l.20221.37079Zm14.98315,0-.42132.3371h-.2865l-.13489-.37079v-2.191l.26972-.236h.37078l.20221.37079Z"/><polygon class="cls-2" points="140.663 295.584 140.663 293.798 141.303 292.382 142.584 291.64 144.337 291.472 146.292 291.472 147.236 291.978 147.957 292.921 148.348 293.865 148.348 297.067 147.27 298.584 146.292 299.056 145.618 299.36 145.551 299.73 143.629 299.73 143.494 299.258 142.483 299.022 141.573 298.618 141 297.506 140.663 296.764 140.663 295.584"/><path class="cls-2" d="M150.67416,301.01122l-1.17975-.97748-1.85394-.30341h-5.96631l-1.55054.30341-1.34832.5393-.64045.84272-.50561,1.24719v1.55054l.30334.97753,1.11237.97754,1.04492.40448.38763.236.15174,3.5393h3.55054v-2.69665l.32586-.13483h.47186l.20228.37079,3.30468.03375v-1.045l.87506-.30335.97754-.47192.60675-.60675.3371-.70783V302.0562ZM141,303.67418l-.16858.67413h-.60675l-.26966-.67413v-.70789l.26966-.30334.40454-.20227L141,302.663Zm7.74749.46863-.40124.20855-.3739-.19641-.01587-1.01111.158-.67669.60663-.00952.28021.66986.01111.70776Z"/><polygon class="cls-2" points="148.484 307.921 148.484 310.348 145.18 310.348 145.18 307.888 148.484 307.921"/></svg>