<svg id="Layer_1" data-name="Layer 1" xmlns="http://www.w3.org/2000/svg" viewBox="0 0 294.06742 241.07865"><defs><style>.cls-1{fill:#3a3b3d;}.cls-2{fill:#fff;}</style></defs><path class="cls-1" d="M151.96761,198.1061a9.27032,9.27032,0,0,1-3.331,2.53048,7.1014,7.1014,0,0,1-2.36615.64554,7.42328,7.42328,0,0,1-2.52668-.25178,8.40735,8.40735,0,0,1-2.56836-1.04207,8.20713,8.20713,0,0,1-2.13934-1.92512L35.191,18.10111a9.27018,9.27018,0,0,1-.55619-4.14606,7.10118,7.10118,0,0,1,.60672-2.3764,7.42333,7.42333,0,0,1,1.46631-2.073A8.40759,8.40759,0,0,1,38.882,7.7865a8.207,8.207,0,0,1,2.73031-.91009l207.069.08258a9.27,9.27,0,0,1,4.02083,1.15415,7.101,7.101,0,0,1,1.93327,1.50926,7.42348,7.42348,0,0,1,1.31048,2.17489,8.40748,8.40748,0,0,1,.70228,2.68126,8.20715,8.20715,0,0,1-.26191,2.86606Z"/><path class="cls-2" d="M141.67415,219.48876a5.9583,5.9583,0,0,1,.30337-2.32584,4.00025,4.00025,0,0,1,1.51685-1.82022,4.17788,4.17788,0,0,1,4.34833.05055,3.93851,3.93851,0,0,1,1.6448,2.04972,6.7217,6.7217,0,0,1,.15412,1.59729,6.09485,6.09485,0,0,1-.13037,2.26874,3.22272,3.22272,0,0,1-1.16294,1.56741,3.03943,3.03943,0,0,1-.76794.38164c-.549.19435-1.02.21647-2.97363.02285-1.20081-.119-1.42972-.1689-1.71909-.35394a2.55853,2.55853,0,0,1-.91013-1.11235A4.64035,4.64035,0,0,1,141.67415,219.48876Z"/><path class="cls-2" d="M141.66107,223.73732l-1.99548.75182a.05324.05324,0,0,0-.02309.0169l-1.29815,1.64766a.0532.0532,0,0,0-.01.02065l-.50144,2.10608-.00145.01235v3.81177a.05333.05333,0,0,0,.01879.04064l.98981.84134,1.84911,1.2a.05332.05332,0,0,1,.02431.04474v3.002a.05334.05334,0,0,0,.05333.05334h4.4439a.05333.05333,0,0,0,.05333-.05334v-1.71633h.85953v1.71633a.05334.05334,0,0,0,.05334.05334h4.545a.05333.05333,0,0,0,.05333-.05334v-3.03093l1.05159-.45068a.05325.05325,0,0,0,.01783-.01246l.79979-.84978.003-.00351.74551-.94433a.05332.05332,0,0,0,.01148-.033v-4.5742l-.00259-.01641-.54986-1.69954a.05323.05323,0,0,0-.01212-.02036l-.99776-1.04766-.01143-.0091-1.35022-.80012a.05318.05318,0,0,0-.01849-.00674l-2.87734-.47556-.0087-.00071h-3.72191l-.0114.00123-2.17421.47584Z"/><polyline class="cls-2" points="12.944 14.191 12.742 15.573 12.944 16.753 13.348 17.461 14.292 17.899 15.169 18.236 16.382 18.236 16.989 18 17.461 17.73 18.067 17.09 18.506 16.315 18.506 14.933 18.303 14.225 17.899 13.551 17.36 13.045 16.685 12.539 15.674 12.539 14.596 12.539 13.888 12.944 13.348 13.551"/><polyline class="cls-2" points="13.553 18.472 15.514 18.236 15.977 18.236 17.73 18.472"/><path class="cls-2" d="M21.87639,22.55057l-.97754-1.7528L19.82024,19.382l-.97754-.67413-1.11237-.236h-4.2135l-1.55054.60675-1.07867,1.07867L9.64043,22.44944,8.427,24.43821v2.32586l1.382,1.7865,1.07861.77527.08429,1.51685.5899,3.809.0337,1.68536h3.70788v-4.618l.573-.13483.30341.37079v4.382h3.60675l.16851-2.79773.30335-2.59552.3034-1.618,2.35956-2.35956V24.70786Zm-8.56177.70783-.20227.67419-.40448.84271-.43823,1.07862-.573.47192H11.191l-.30341-.64044.30341-.8764.84271-1.58429.8764-.67414.40448.13483Zm6.86371,3.06744h-.50568l-.573-.47192-.43824-1.07862-.40448-.84271-.20221-.67419v-.573l.40448-.13483.87641.67414.84271,1.58429.30335.8764Z"/><polygon class="cls-2" points="272.798 15.27 273 14.242 273.522 13.466 274.331 12.809 275.039 12.607 275.629 12.607 276.489 12.607 277.146 12.927 277.753 13.584 278.073 13.938 278.343 14.596 278.41 15.388 278.41 16.213 278.022 16.888 277.652 17.393 277.129 17.815 276.742 18.101 276.708 18.371 274.82 18.371 274.77 18.067 274.062 17.798 273.472 17.191 272.865 16.331 272.798 15.27"/><polygon class="cls-2" points="275.933 36.388 279.742 36.388 279.893 33.775 280.281 31.803 275.933 31.771 275.933 36.388"/><path class="cls-2" d="M283.85393,21l-.52246-.8258-.72473-.691-.70789-.64044-.80054-.2865L279,18.37076h-4.17975l-3.13483.08429-1.264.10114-1.06183.55615-1.06176.85956-.691.82587-.3371.74157v1.82019l.28656,1.82025.64044,1.87079.85956,1.14606,1.19659.809.57306.37079.34552,1.01129.1095,1.90448L271.5,33.7584l.15167,2.62927h3.67419V31.80338l.16852-.03369h.20227l4.58423.03369.10113-1.98877.35395-.57306.97754-.55615.99438-.65729.52246-.96069.3371-1.01123.455-1.62641.10113-1.30621v-1.1629Zm-11.882,5.20789h-.691l-.37073-.75842-.16858-.42133-.16009-.96069-.1601-.40448-.16858-.65735.16858-.40448.48877-.10114h.26123l.09265.37079.25281.9607.37079,1.11236.20227.94385Zm8.95789-2.46912-.16016.40455-.1601.96063-.16851.42138-.37079.75843h-.691l-.118-.32025.20227-.94379.37079-1.11237.2528-.96069.09272-.37079h.26123l.48877.10114.16851.40448Z"/></svg>