<svg width="31" height="22" viewBox="0 0 31 22" fill="none" xmlns="http://www.w3.org/2000/svg">
<path fill-rule="evenodd" clip-rule="evenodd" d="M7.77274 5.36115C8.96832 2.22663 12.0027 0 15.5571 0C19.1221 0 22.1639 2.23979 23.3521 5.3889C27.5378 5.8288 30.8 9.36918 30.8 13.6715C30.8 18.2712 27.0712 22 22.4714 22C22.4189 22 22.3666 21.9996 22.3143 21.9986V22H8.34747L8.32857 22L8.30968 22H7.85715V21.9869C3.47673 21.7425 0 18.113 0 13.6715C0 9.2585 3.43215 5.64716 7.77274 5.36115ZM19.5 12.866C20.1667 12.4811 20.1667 11.5189 19.5 11.134L13.5 7.66987C12.8333 7.28497 12 7.7661 12 8.5359V15.4641C12 16.2339 12.8333 16.715 13.5 16.3301L19.5 12.866Z" fill="white"/>
</svg>
