<svg width="31" height="22" viewBox="0 0 31 22" fill="none" xmlns="http://www.w3.org/2000/svg">
<mask id="path-1-inside-1_15_28" fill="white">
<path fill-rule="evenodd" clip-rule="evenodd" d="M7.77274 5.36115C8.96832 2.22663 12.0027 0 15.5571 0C19.1221 0 22.1639 2.23979 23.3521 5.3889C27.5378 5.8288 30.8 9.36918 30.8 13.6715C30.8 18.2712 27.0712 22 22.4714 22C22.4189 22 22.3666 21.9996 22.3143 21.9986V22H8.34747L8.32857 22L8.30968 22H7.85715V21.9869C3.47673 21.7425 0 18.113 0 13.6715C0 9.2585 3.43215 5.64716 7.77274 5.36115ZM18.5 12.866C19.1667 12.4811 19.1667 11.5189 18.5 11.134L14 8.5359C13.3333 8.151 12.5 8.63212 12.5 9.40192V14.5981C12.5 15.3679 13.3333 15.849 14 15.4641L18.5 12.866Z"/>
</mask>
<path d="M7.77274 5.36115L7.88123 7.00758L8.93725 6.938L9.31441 5.94917L7.77274 5.36115ZM23.3521 5.3889L21.8083 5.97139L22.1676 6.92351L23.1796 7.02987L23.3521 5.3889ZM22.3143 21.9986L22.3448 20.3489L20.6643 20.3178V21.9986H22.3143ZM22.3143 22V23.65H23.9643V22H22.3143ZM8.34747 22V20.35L8.34564 20.35L8.34747 22ZM8.32857 22L8.32674 23.65L8.3304 23.65L8.32857 22ZM8.30968 22L8.31151 20.35H8.30968V22ZM7.85715 22H6.20715V23.65H7.85715V22ZM7.85715 21.9869H9.50715V20.4264L7.94907 20.3395L7.85715 21.9869ZM18.5 11.134L17.675 12.5629L17.675 12.5629L18.5 11.134ZM18.5 12.866L19.325 14.295L18.5 12.866ZM14 8.5359L14.825 7.10696V7.10696L14 8.5359ZM14 15.4641L13.175 14.0352H13.175L14 15.4641ZM15.5571 -1.65C11.2959 -1.65 7.66249 1.02031 6.23108 4.77312L9.31441 5.94917C10.2741 3.43296 12.7095 1.65 15.5571 1.65V-1.65ZM24.8958 4.80642C23.4732 1.03605 19.8309 -1.65 15.5571 -1.65V1.65C18.4132 1.65 20.8545 3.44353 21.8083 5.97139L24.8958 4.80642ZM32.45 13.6715C32.45 8.51578 28.5413 4.27518 23.5245 3.74794L23.1796 7.02987C26.5344 7.38243 29.15 10.2226 29.15 13.6715H32.45ZM22.4714 23.65C27.9824 23.65 32.45 19.1825 32.45 13.6715H29.15C29.15 17.3599 26.1599 20.35 22.4714 20.35V23.65ZM22.2838 23.6483C22.3462 23.6495 22.4087 23.65 22.4714 23.65V20.35C22.4291 20.35 22.3869 20.3496 22.3448 20.3489L22.2838 23.6483ZM23.9643 22V21.9986H20.6643V22H23.9643ZM8.34747 23.65H22.3143V20.35H8.34747V23.65ZM8.3304 23.65L8.3493 23.65L8.34564 20.35L8.32674 20.35L8.3304 23.65ZM8.30784 23.65L8.32674 23.65L8.3304 20.35L8.31151 20.35L8.30784 23.65ZM7.85715 23.65H8.30968V20.35H7.85715V23.65ZM6.20715 21.9869V22H9.50715V21.9869H6.20715ZM-1.65 13.6715C-1.65 18.9935 2.51553 23.3414 7.76522 23.6344L7.94907 20.3395C4.43793 20.1436 1.65 17.2325 1.65 13.6715H-1.65ZM7.66426 3.71472C2.46216 4.05749 -1.65 8.38358 -1.65 13.6715H1.65C1.65 10.1334 4.40215 7.23682 7.88123 7.00758L7.66426 3.71472ZM17.675 12.5629C17.2417 12.3127 17.2417 11.6873 17.675 11.4371L19.325 14.295C21.0917 13.275 21.0917 10.725 19.325 9.70503L17.675 12.5629ZM13.175 9.96484L17.675 12.5629L19.325 9.70503L14.825 7.10696L13.175 9.96484ZM14.15 9.40192C14.15 9.90229 13.6083 10.215 13.175 9.96484L14.825 7.10696C13.0583 6.08697 10.85 7.36195 10.85 9.40192H14.15ZM14.15 14.5981V9.40192H10.85V14.5981H14.15ZM13.175 14.0352C13.6083 13.785 14.15 14.0977 14.15 14.5981H10.85C10.85 16.638 13.0583 17.913 14.825 16.893L13.175 14.0352ZM17.675 11.4371L13.175 14.0352L14.825 16.893L19.325 14.295L17.675 11.4371Z" fill="#BDBEBE" mask="url(#path-1-inside-1_15_28)"/>
</svg>
