<svg width="31" height="22" viewBox="0 0 31 22" fill="none" xmlns="http://www.w3.org/2000/svg">
<mask id="path-1-inside-1_23_175" fill="white">
<path fill-rule="evenodd" clip-rule="evenodd" d="M15.5571 0C12.0027 0 8.96832 2.22663 7.77274 5.36115C3.43215 5.64716 0 9.2585 0 13.6715C0 18.113 3.47673 21.7425 7.85715 21.9869V22H8.30968C8.31597 22 8.32227 22 8.32857 22C8.33487 22 8.34117 22 8.34747 22H22.3143V21.9986C22.3666 21.9996 22.4189 22 22.4714 22C27.0712 22 30.8 18.2712 30.8 13.6715C30.8 9.36918 27.5378 5.8288 23.3521 5.3889C22.1639 2.23979 19.1221 0 15.5571 0Z"/>
</mask>
<path d="M7.77274 5.36115L7.90424 7.35682L9.18426 7.27248L9.64142 6.07391L7.77274 5.36115ZM7.85715 21.9869H9.85715V20.0954L7.96857 19.99L7.85715 21.9869ZM7.85715 22H5.85715V24H7.85715V22ZM8.30968 22L8.31392 20H8.30968V22ZM8.34747 22L8.34747 20L8.34323 20L8.34747 22ZM22.3143 22V24H24.3143V22H22.3143ZM22.3143 21.9986L22.3513 19.9989L20.3143 19.9612V21.9986H22.3143ZM23.3521 5.3889L21.4809 6.09495L21.9163 7.24903L23.143 7.37795L23.3521 5.3889ZM15.5571 -2C11.146 -2 7.38549 0.764426 5.90406 4.64839L9.64142 6.07391C10.5511 3.68884 12.8594 2 15.5571 2V-2ZM7.64124 3.36548C2.2564 3.72029 -2 8.19799 -2 13.6715H2C2 10.319 4.60791 7.57402 7.90424 7.35682L7.64124 3.36548ZM-2 13.6715C-2 19.1802 2.31164 23.6806 7.74572 23.9838L7.96857 19.99C4.64182 19.8044 2 17.0458 2 13.6715H-2ZM5.85715 21.9869V22H9.85715V21.9869H5.85715ZM7.85715 24H8.30968V20H7.85715V24ZM8.30543 24C8.31294 24 8.32066 24 8.32857 24V20C8.32388 20 8.31901 20 8.31392 20L8.30543 24ZM8.32857 24C8.33648 24 8.34421 24 8.35171 24L8.34323 20C8.33813 20 8.33326 20 8.32857 20V24ZM8.34747 24H22.3143V20H8.34747V24ZM24.3143 22V21.9986H20.3143V22H24.3143ZM22.2773 23.9982C22.3419 23.9994 22.4066 24 22.4714 24V20C22.4313 20 22.3912 19.9997 22.3513 19.9989L22.2773 23.9982ZM22.4714 24C28.1757 24 32.8 19.3758 32.8 13.6715H28.8C28.8 17.1666 25.9666 20 22.4714 20V24ZM32.8 13.6715C32.8 8.33476 28.7542 3.94562 23.5611 3.39986L23.143 7.37795C26.3215 7.71199 28.8 10.4036 28.8 13.6715H32.8ZM25.2233 4.68286C23.751 0.780706 19.9813 -2 15.5571 -2V2C18.2629 2 20.5768 3.69887 21.4809 6.09495L25.2233 4.68286Z" fill="#BDBEBE" mask="url(#path-1-inside-1_23_175)"/>
<path d="M14.4125 16.1786L18.9125 13.5805C20.1292 12.8781 20.1292 11.1219 18.9125 10.4195L14.4125 7.82143C13.1958 7.11898 11.675 7.99704 11.675 9.40192L11.675 14.5981C11.675 16.003 13.1958 16.881 14.4125 16.1786Z" stroke="#BDBEBE" stroke-width="1.65"/>
</svg>
