<?xml version="1.0" encoding="utf-8"?>
<!-- Generator: Adobe Illustrator 26.0.1, SVG Export Plug-In . SVG Version: 6.00 Build 0)  -->
<svg version="1.1" id="navigation" xmlns="http://www.w3.org/2000/svg" xmlns:xlink="http://www.w3.org/1999/xlink" x="0px" y="0px"
	 viewBox="0 0 52.2 81" style="enable-background:new 0 0 52.2 81;" xml:space="preserve">
<style type="text/css">
	.st0{fill:#BDBEBE;}
	.st1{fill:#FFFFFF;}
</style>
<g id="trade">
	<path class="st0" d="M4.6,62.7l1.7,1.2l-1.7,1.2L5,64.2l0.1-0.3L5,63.6L4.6,62.7 M3.6,61.1c-0.2,0-0.3,0.1-0.3,0.3c0,0,0,0,0,0
		c0,0.1,0,0.2,0.1,0.3l1,2.2l-1,2.2c-0.1,0.1-0.1,0.1-0.1,0.2c0,0.2,0.1,0.3,0.3,0.3c0,0,0,0,0.1,0c0.1,0,0.1,0,0.2,0l3.8-2.8
		l-3.8-2.7C3.7,61.2,3.7,61.1,3.6,61.1L3.6,61.1z"/>
</g>
<g id="avatar-hover">
	<path class="st1" d="M50,21.9c-0.9-0.4-1.9-0.8-2.9-0.9v0.8c0.6,0.1,1.2,0.3,1.7,0.6c2.8,1.4-0.2,3.5-8.7,3.5s-11.4-2-8.7-3.5
		c0.5-0.2,1.1-0.4,1.7-0.6V21c-1,0.2-2,0.5-2.9,0.9c-3.8,1.9-1,5.1,9.9,5.1S53.8,23.8,50,21.9z"/>
	<path class="st1" d="M34.6,20v1.7c0,1.5,1.3,2.8,2.8,2.8h1.9c0.5,0,0.9-0.4,0.9-0.9c0,0.5,0.4,0.9,0.9,0.9H43
		c1.5,0,2.8-1.3,2.8-2.8V20c1.4-0.1,2.5-1.3,2.5-2.7v-1.8c0-0.7-0.1-1.4-0.2-2.1c-0.4-1.6-1.7-2.9-3.4-3.2c0.1-1.1,0.1-2.3,0-3.4
		c-0.3-1.4-1.3-2.4-2.7-2.7c-1.1-0.1-2.3-0.1-3.4,0c-1.4,0.3-2.4,1.3-2.7,2.7c-0.1,1.1-0.1,2.3,0,3.4c-1.7,0.3-3,1.6-3.4,3.2
		c-0.1,0.7-0.2,1.4-0.2,2.1v1.8c-0.2,1.3,0.8,2.5,2.1,2.7C34.5,20,34.5,20,34.6,20z M37.6,7.1c0.1-0.4,0.6-1,1-1
		c1-0.1,1.9-0.1,2.9,0c0.4,0.1,1,0.6,1,1c0.1,1,0.1,1.9,0,2.9c-0.1,0.5-0.5,0.9-1,1c-1,0.1-1.9,0.1-2.9,0c-0.5-0.1-0.9-0.5-1-1
		C37.5,9,37.5,8.1,37.6,7.1z M34.1,15.5c0-0.6,0-1.2,0.1-1.8c0.3-0.8,1-1.4,1.8-1.5c2.7-0.2,5.4-0.2,8.1,0c0.8,0.2,1.5,0.7,1.8,1.5
		c0.1,1.2,0.2,2.4,0.1,3.6c0,0.9-0.9,0.8-1.5,0.8v-3c0-0.3-0.2-0.5-0.5-0.5s-0.5,0.2-0.5,0.5v6.7c0,0.4-0.3,0.8-0.8,0.8c0,0,0,0,0,0
		h-0.6c-0.5,0-1-0.4-1-0.9c0,0,0-0.1,0-0.1v-2c0-0.6-0.4-1-1-1s-1,0.4-1,1v2c0,0.5-0.4,1-0.9,1c0,0-0.1,0-0.1,0h-0.8
		c-0.4,0-0.8-0.4-0.8-0.8v-6.7c0-0.3-0.2-0.5-0.5-0.5s-0.5,0.2-0.5,0.5v3h-0.6c-0.4,0-0.8-0.3-0.8-0.8c0,0,0,0,0,0L34.1,15.5z"/>
</g>
<g id="avatar">
	<path class="st0" d="M22,21.9c-0.9-0.4-1.9-0.8-2.9-0.9v0.8c0.6,0.1,1.2,0.3,1.7,0.6c2.8,1.4-0.2,3.5-8.7,3.5s-11.4-2-8.7-3.5
		c0.5-0.2,1.1-0.4,1.7-0.6V21c-1,0.2-2,0.5-2.9,0.9c-3.8,1.9-1,5.1,9.9,5.1S25.8,23.8,22,21.9z"/>
	<path class="st0" d="M20.1,13.4c-0.4-1.6-1.7-2.9-3.4-3.2c0.1-1.1,0.1-2.3,0-3.4c-0.3-1.4-1.3-2.4-2.7-2.7c-1.1-0.1-2.3-0.1-3.4,0
		C9.2,4.4,8.2,5.4,7.9,6.8c-0.1,1.1-0.1,2.3,0,3.4c-1.7,0.3-3,1.6-3.4,3.2c-0.1,0.7-0.2,1.4-0.2,2.1v1.8c-0.2,1.3,0.8,2.5,2.1,2.7
		c0.1,0,0.1,0,0.2,0v1.7c0,1.5,1.3,2.8,2.8,2.8h1.9c0.5,0,0.9-0.4,0.9-0.9c0,0.5,0.4,0.9,0.9,0.9H15c1.5,0,2.8-1.3,2.8-2.8V20
		c1.4-0.1,2.5-1.3,2.5-2.7v-1.8C20.3,14.8,20.2,14.1,20.1,13.4z M18.2,14c-0.1,0.1-0.1,0.2-0.2,0.3c0.1,1,0,2.1,0,2.9
		s-0.9,0.8-1.5,0.8v-3c0-0.1,0-0.1,0-0.2h0c-0.2,0-0.5-0.1-0.6-0.3c-0.2,0.1-0.3,0.3-0.3,0.4v6.7c0,0.4-0.3,0.8-0.8,0.8c0,0,0,0,0,0
		h-0.6c-0.5,0-1-0.4-1-0.9c0,0,0-0.1,0-0.1v-2c0-0.6-0.4-1-1-1s-1,0.4-1,1v2c0,0.5-0.4,1-0.9,1c0,0-0.1,0-0.1,0H9.3
		c-0.4,0-0.8-0.4-0.8-0.8v-6.7c0,0-0.1,0.1-0.1,0.1c-0.2,0.1-0.4,0.1-0.6,0.1H7.5v2.9H6.9c-0.4,0-0.8-0.3-0.8-0.8c0,0,0,0,0,0v-1.8
		c0-0.3,0-0.6,0-1l-0.2-0.1l-0.2-0.3c0-0.1-0.1-0.2-0.1-0.2v0l0,0c-0.1-0.1-0.1-0.3-0.2-0.5c-0.1-0.3-0.1-0.6,0-0.9l0,0l0,0l0.2-0.4
		l0,0l0.2-0.3l0,0c0.1-0.1,0.2-0.2,0.3-0.3h0.1l0.4-0.2l0,0l0,0h0.1l0.4-0.1l0,0v-0.1c0.1-0.2,0.3-0.3,0.4-0.4l0.4-0.2h0.1h0.3
		c-0.1-0.2-0.2-0.5-0.2-0.8c0-0.1,0-0.2,0-0.3C8.1,9.5,8.1,9.4,8,9.3c0-0.1,0-0.1,0-0.2C8,8.9,8,8.8,7.9,8.6c0-0.1,0-0.1,0-0.2
		c0,0,0-0.1,0-0.1c0-0.2,0-0.3,0.1-0.5c0-0.1,0-0.1,0-0.2c0,0,0-0.1,0.1-0.1C7.9,7,7.9,6.5,8.2,6c0.4-0.7,1.2-1,2-0.8
		c0.2,0.1,0.4,0.2,0.6,0.3h0.2c0.3,0,0.5,0,0.8,0c0.5,0,0.9,0,1.4,0c0.6,0,1.2,0.3,1.6,0.7c0.4,0.5,0.7,1,0.8,1.5
		c0.2,0.4,0.3,0.9,0.2,1.4c0,0.6-0.2,1.2-0.5,1.7c-0.1,0.1-0.2,0.2-0.2,0.3c0.1,0,0.2,0,0.2,0c0.4,0.1,0.7,0.4,0.9,0.7
		c0,0.1,0.1,0.1,0.1,0.2c0.1,0,0.2,0,0.3,0c0.9,0,1.6,0.7,1.6,1.5C18.2,13.8,18.2,13.9,18.2,14L18.2,14z"/>
	<path class="st0" d="M13.3,11.7c-0.8,0-1.7,0-2.5,0h-0.2v0.1c0,0.1,0,0.1,0,0.2c1,0,1.9,0,2.9,0v-0.1c0-0.1,0.1-0.2,0.1-0.3
		C13.5,11.7,13.4,11.7,13.3,11.7z"/>
</g>
<path class="st0" d="M9.8,12.4l0.1-0.3l-0.9-1.6c-0.1-0.1-0.2-0.3-0.2-0.4l-1.2-2L7.2,6.9L6.7,6.1L6.3,5.8H5.9v0.7L5.7,7.2L5.3,7.4
	v1.1H4.9v1.7l0.9,1.1l0.1,0.3L5.5,12l-0.2,0.5l-0.2,1l0.3,1.2l0.7,0.7l0.5,0.3l0.5,0.2h0.6l0.6-0.1l0.4-0.1l0.5-0.4l0.3-0.5L9.9,14
	l0.1-0.7L9.8,12.4z M7.4,14.9c-0.8-0.1-1.4-0.9-1.3-1.7c0.1-0.6,0.6-1.1,1.3-1.3c0.8,0.1,1.4,0.9,1.3,1.7
	C8.6,14.3,8.1,14.8,7.4,14.9z"/>
<path class="st0" d="M18.9,8.5V7.4l-0.4-0.2l-0.2-0.6V5.8h-0.4l-0.3,0.3l-0.5,0.7l-0.3,1.3l-2.4,4l0,0.3l-0.2,1l0.1,0.7l0.3,0.6
	l0.3,0.5l0.5,0.4l0.4,0.1l0.6,0.1h0.6l0.5-0.2l0.5-0.3l0.7-0.7l0.3-1.2l-0.2-1L18.7,12l-0.3-0.4l0.1-0.3l0.9-1.1V8.6L18.9,8.5z
	 M16.8,14.9c-0.8-0.1-1.4-0.9-1.3-1.7c0.1-0.6,0.6-1.1,1.3-1.3c0.8,0.1,1.4,0.9,1.3,1.7C17.9,14.3,17.4,14.8,16.8,14.9L16.8,14.9z"
	/>
<polyline class="st0" points="9.8,12.4 14.4,12.4 14.4,11 9.8,11 "/>
<path class="st0" d="M16.7,8.2c0,0,0-0.1-0.1-0.3c-0.1-0.6,0-0.9-0.1-1.3c-0.1-0.4-0.2-0.8-0.4-1.2c-0.2-0.4-0.4-0.8-0.6-1.1
	c-0.3-0.4-0.6-0.7-1-1c-0.4-0.3-0.9-0.6-1.4-0.7c-0.4-0.1-0.8-0.1-1.2-0.1c-0.3,0-0.7,0.1-1,0.2C10.6,2.7,10.3,2.8,10,3
	C9.7,3.2,9.4,3.4,9.2,3.7C8.8,4,8.5,4.3,8.2,4.7C8,5,7.8,5.4,7.7,5.9c-0.2,0.5-0.3,1-0.3,1.5C7.3,8.9,7.9,10.5,9,11.7
	c0.2,0.1,0.4,0.3,0.6,0.4c0.2,0.1,0.4,0.1,0.6,0.1l0.8,0.2c0.2,0,0.5,0.1,0.7,0.1c0.2,0,0.5,0,0.7,0c0.3,0,0.7-0.1,1-0.1
	c0.7-0.1,1-0.2,1.1-0.2C16.1,11.7,16.9,9.1,16.7,8.2z M14.9,9.1c0,0.4-0.2,0.8-0.4,1.1c-0.1,0.1-0.2,0.3-0.4,0.4
	c-0.2,0.1-0.4,0.1-0.6,0.1c-0.4,0-0.8,0-1.1,0c-0.6,0-1.2,0-1.7,0c-0.3,0-0.5,0-0.7-0.1c-0.2-0.1-0.4-0.2-0.5-0.4
	C9.4,10,9.3,9.8,9.3,9.6L9.1,8.9C9,8.6,9,8.4,9,8.1c0-0.2,0-0.5,0.1-0.7C9.2,7.2,9.3,7,9.5,6.7c0.3-0.3,0.8-0.3,1.6-0.4
	c0.6,0,0.4,0,1.7,0c0.5-0.1,0.9,0,1.3,0.2c0.2,0.1,0.4,0.3,0.5,0.5C14.9,7.3,15,7.7,15,8C15,8.4,15,8.7,14.9,9.1z"/>
<g>
	<g id="avatar-2">
		<path class="st1" d="M50,21.9c-0.9-0.4-1.9-0.8-2.9-0.9v0.8c0.6,0.1,1.2,0.3,1.7,0.6c2.8,1.4-0.2,3.5-8.7,3.5s-11.4-2-8.7-3.5
			c0.5-0.2,1.1-0.4,1.7-0.6V21c-1,0.2-2,0.5-2.9,0.9c-3.8,1.9-1,5.1,9.9,5.1S53.8,23.8,50,21.9z"/>
		<path class="st1" d="M48.1,13.4c-0.4-1.6-1.7-2.9-3.4-3.2c0.1-1.1,0.1-2.3,0-3.4c-0.3-1.4-1.3-2.4-2.7-2.7c-1.1-0.1-2.3-0.1-3.4,0
			c-1.4,0.3-2.4,1.3-2.7,2.7c-0.1,1.1-0.1,2.3,0,3.4c-1.7,0.3-3,1.6-3.4,3.2c-0.1,0.7-0.2,1.4-0.2,2.1v1.8c-0.2,1.3,0.8,2.5,2.1,2.7
			c0.1,0,0.1,0,0.2,0v1.7c0,1.5,1.3,2.8,2.8,2.8h1.9c0.5,0,0.9-0.4,0.9-0.9c0,0.5,0.4,0.9,0.9,0.9H43c1.5,0,2.8-1.3,2.8-2.8V20
			c1.4-0.1,2.5-1.3,2.5-2.7v-1.8C48.3,14.8,48.2,14.1,48.1,13.4z M46.2,14c-0.1,0.1-0.1,0.2-0.2,0.3c0.1,1,0,2.1,0,2.9
			s-0.9,0.8-1.5,0.8v-3c0-0.1,0-0.1,0-0.2l0,0c-0.2,0-0.5-0.1-0.6-0.3c-0.2,0.1-0.3,0.3-0.3,0.4v6.7c0,0.4-0.3,0.8-0.8,0.8
			c0,0,0,0,0,0h-0.7c-0.5,0-1-0.4-1-0.9c0,0,0-0.1,0-0.1v-2c0-0.6-0.4-1-1-1s-1,0.4-1,1v2c0,0.5-0.4,1-0.9,1c0,0-0.1,0-0.1,0h-0.8
			c-0.4,0-0.8-0.4-0.8-0.8v-6.7c0,0-0.1,0.1-0.1,0.1c-0.2,0.1-0.4,0.1-0.6,0.1h-0.3v2.9h-0.6c-0.4,0-0.8-0.3-0.8-0.8c0,0,0,0,0,0
			v-1.8c0-0.3,0-0.6,0-1l-0.2-0.1l-0.2-0.3c0-0.1-0.1-0.2-0.1-0.2v0l0,0c-0.1-0.1-0.1-0.3-0.2-0.5c-0.1-0.3-0.1-0.6,0-0.9l0,0l0,0
			l0.2-0.4l0,0l0.2-0.3l0,0c0.1-0.1,0.2-0.2,0.3-0.3h0.1l0.4-0.2l0,0l0,0l0,0l0.4-0.1l0,0c0,0,0,0,0-0.1c0.1-0.2,0.3-0.3,0.4-0.4
			l0.4-0.2H36h0.3c-0.1-0.2-0.2-0.5-0.2-0.8c0-0.1,0-0.2,0-0.3C36.1,9.5,36,9.4,36,9.3c0-0.1,0-0.1,0-0.2c0-0.2-0.1-0.4-0.1-0.6
			c0-0.1,0-0.1,0-0.2c0,0,0-0.1,0-0.1c0-0.2,0-0.3,0.1-0.5c0-0.1,0-0.1,0-0.2c0,0,0-0.1,0-0.1C35.8,7,35.8,6.5,36.1,6
			c0.4-0.7,1.2-1,2-0.8c0.2,0.1,0.4,0.2,0.5,0.3h0.2c0.3,0,0.5,0,0.8,0c0.5,0,0.9,0,1.4,0c0.6,0,1.2,0.3,1.6,0.7
			c0.4,0.5,0.7,1,0.8,1.5c0.2,0.4,0.3,0.9,0.2,1.4c0,0.6-0.2,1.2-0.5,1.7c-0.1,0.1-0.2,0.2-0.2,0.3c0.1,0,0.2,0,0.2,0
			c0.4,0.1,0.7,0.4,0.9,0.7c0,0.1,0.1,0.1,0.1,0.2c0.1,0,0.2,0,0.3,0c0.9-0.1,1.6,0.6,1.7,1.5C46.2,13.7,46.2,13.9,46.2,14L46.2,14z
			"/>
		<path class="st1" d="M41.3,11.7c-0.8,0-1.7,0-2.5,0h-0.2v0.1c0,0.1,0,0.1,0,0.2c1,0,1.9,0,2.9,0v-0.1c0-0.1,0.1-0.2,0.1-0.3
			C41.5,11.7,41.4,11.7,41.3,11.7z"/>
	</g>
	<path class="st1" d="M37.8,12.4v-0.3l-0.9-1.6c-0.1-0.1-0.2-0.3-0.2-0.4l-1.2-2l-0.3-1.3l-0.5-0.7l-0.3-0.3h-0.4v0.7l-0.2,0.6
		l-0.4,0.2v1.1h-0.5v1.7l0.9,1.1l0.1,0.3L33.5,12l-0.2,0.5l-0.2,1l0.3,1.2l0.7,0.7l0.5,0.3l0.5,0.2h0.6l0.6-0.1l0.4-0.1l0.5-0.4
		l0.3-0.5l0.3-0.6l0.1-0.7L37.8,12.4z M35.4,14.9c-0.8-0.1-1.4-0.9-1.3-1.7c0.1-0.6,0.6-1.1,1.3-1.3c0.8,0.1,1.4,0.9,1.3,1.7
		C36.6,14.3,36.1,14.8,35.4,14.9z"/>
	<path class="st1" d="M46.9,8.5V7.4l-0.4-0.2l-0.2-0.6V5.8h-0.4l-0.3,0.3L45,6.9l-0.3,1.3l-2.3,4v0.3l-0.2,1l0.1,0.7l0.3,0.6
		l0.3,0.5l0.5,0.4l0.4,0.1l0.6,0.1h0.7l0.5-0.2l0.5-0.3l0.7-0.7l0.3-1.2l-0.2-1L46.7,12l-0.3-0.4l0.1-0.3l0.9-1.1V8.6L46.9,8.5z
		 M44.8,14.9c-0.8-0.1-1.4-0.9-1.3-1.7c0.1-0.6,0.6-1.1,1.3-1.3c0.8,0.1,1.4,0.9,1.3,1.7C45.9,14.3,45.4,14.8,44.8,14.9L44.8,14.9z"
		/>
	<polyline class="st1" points="37.8,12.4 42.4,12.4 42.4,11 37.8,11 	"/>
	<path class="st1" d="M44.7,8.2l-0.1-0.3c-0.1-0.6,0-0.9-0.1-1.3c-0.1-0.4-0.2-0.8-0.4-1.2C44,5,43.8,4.6,43.5,4.2
		c-0.3-0.4-0.6-0.7-0.9-1c-0.4-0.3-0.9-0.6-1.5-0.7c-0.4-0.1-0.8-0.1-1.2-0.1c-0.3,0-0.7,0.1-1,0.2c-0.3,0.1-0.6,0.2-0.9,0.4
		c-0.3,0.2-0.6,0.4-0.8,0.7c-0.3,0.3-0.7,0.6-0.9,1c-0.2,0.4-0.4,0.8-0.5,1.2c-0.2,0.5-0.3,1-0.3,1.5c0,0.3,0,0.5,0,0.8
		c0.1,1.3,0.7,2.6,1.6,3.6c0.2,0.1,0.4,0.3,0.7,0.4c0.2,0.1,0.4,0.1,0.5,0.1l0.8,0.2c0.2,0,0.5,0.1,0.7,0.1c0.2,0,0.5,0,0.7,0
		c0.3,0,0.7-0.1,1-0.1c0.7-0.1,1-0.2,1.1-0.2C44.1,11.7,45,9.1,44.7,8.2z M36.4,8.3L36.4,8.3c0-0.1-0.1-0.3-0.1-0.5
		c0-0.3,0-0.6,0.1-0.8v0c-0.1,0.2-0.1,0.5-0.1,0.7C36.3,7.9,36.3,8.1,36.4,8.3z M37,10.4c-0.1-0.2-0.2-0.3-0.2-0.5
		c0.1,0.2,0.2,0.5,0.4,0.7C37.1,10.6,37,10.5,37,10.4z M43,9.1c0,0.4-0.2,0.8-0.3,1.1c-0.1,0.1-0.2,0.3-0.4,0.4
		c-0.2,0.1-0.4,0.1-0.5,0.1c-0.4,0-0.8,0-1.2,0c-0.6,0-1.2,0-1.7,0c-0.3,0-0.5,0-0.8-0.1c-0.2-0.1-0.4-0.2-0.5-0.4
		c-0.1-0.1-0.1-0.1-0.2-0.6s-0.2-0.5-0.2-0.7c-0.1-0.2-0.1-0.5-0.1-0.7c0-0.2,0-0.5,0.1-0.7c0.1-0.3,0.2-0.5,0.4-0.7
		c0.3-0.3,0.8-0.3,1.6-0.4c0.6,0,0.4,0,1.7,0c0.5-0.1,0.9,0,1.3,0.2c0.2,0.1,0.4,0.3,0.5,0.5c0.2,0.3,0.3,0.6,0.3,1
		C43.1,8.4,43,8.7,43,9.1L43,9.1z"/>
</g>
<path class="st1" d="M37.5,10.3C37.3,10,37.2,9.7,37,9.4c-0.1-0.2-0.2-0.5-0.3-0.8c0-0.1,0-0.2,0-0.3c0-0.1,0-0.3,0-0.4
	c0-0.3,0-0.6,0-0.9c-0.1-0.3-0.4-0.4-0.6-0.4c-0.3,0.1-0.4,0.3-0.3,0.6c0,0.1,0,0.2,0,0.4c0,0.1,0,0.3,0,0.5c0,0.3,0,0.6,0.1,0.9
	c0.1,0.3,0.2,0.6,0.4,0.9l0.4,0.9c0.1,0.2,0.4,0.3,0.7,0.2C37.6,10.8,37.7,10.5,37.5,10.3L37.5,10.3L37.5,10.3z"/>
<path class="st1" d="M34.5,11.6c0-0.1-0.1-0.2-0.1-0.2l-0.1-0.1c-0.1,0-0.2-0.1-0.2-0.1l0,0c-0.1,0-0.1,0-0.2,0
	c-0.1,0-0.1,0-0.2,0.1c0,0-0.1,0.1-0.1,0.2c0,0.1,0,0.1,0,0.2v0.1c0,0.1,0.1,0.2,0.1,0.2l0.1,0.1c0.1,0,0.2,0.1,0.2,0.1l0,0
	c0.1,0,0.1,0,0.2,0c0.1,0,0.2-0.1,0.3-0.3c0-0.1,0-0.1,0-0.2L34.5,11.6z"/>
<g id="trade-2">
	<path class="st0" d="M4.7,69l1.7,1.2l-1.7,1.2L5,70.5l0.2-0.3L5,69.9L4.7,69 M3.7,67.4c-0.2,0-0.3,0.1-0.3,0.3c0,0,0,0,0,0.1
		c0,0.1,0,0.2,0.1,0.3l1,2.2l-1,2.2c-0.1,0.1-0.1,0.1-0.1,0.2c0,0.2,0.1,0.3,0.3,0.3c0,0,0,0,0.1,0c0.1,0,0.1,0,0.1,0l3.8-2.8
		l-3.8-2.7C3.8,67.5,3.7,67.5,3.7,67.4L3.7,67.4z"/>
</g>
<g id="trade-3">
	<path class="st0" d="M4.6,75.4l1.7,1.2l-1.7,1.2L5,76.9l0.1-0.3L5,76.3L4.6,75.4 M3.6,73.8c-0.2,0-0.3,0.1-0.3,0.3c0,0,0,0,0,0
		c0,0.1,0,0.2,0.1,0.3l1,2.2l-1,2.2c-0.1,0-0.1,0.1-0.1,0.2c0,0.2,0.1,0.3,0.3,0.3c0,0,0,0,0,0c0.1,0,0.1,0,0.2,0l3.8-2.8l-3.8-2.7
		C3.7,73.8,3.7,73.8,3.6,73.8L3.6,73.8z"/>
</g>
<path class="st0" d="M19.2,62.9h-10c-0.5,0-1,0.4-1,0.9c0,0,0,0.1,0,0.1c0,0.5,0.4,0.9,0.9,1h10.1c0.6,0,1-0.4,1-1
	S19.7,62.9,19.2,62.9z"/>
<path class="st0" d="M19.2,69.2h-10c-0.5,0-1,0.4-1,0.9c0,0,0,0.1,0,0.1c0,0.5,0.4,0.9,0.9,1h10.1c0.6,0,1-0.4,1-1
	S19.7,69.2,19.2,69.2z"/>
<path class="st0" d="M19.2,75.6h-10c-0.5,0-1,0.4-1,0.9c0,0,0,0.1,0,0.1c0,0.5,0.4,0.9,0.9,1h10.1c0.6,0,1-0.4,1-1
	S19.7,75.6,19.2,75.6z"/>
<g id="trade-4">
	<path class="st1" d="M32.7,62.6l1.7,1.2l-1.7,1.2l0.4-0.9l0.1-0.3l-0.1-0.3L32.7,62.6 M31.7,61c-0.2,0-0.3,0.1-0.3,0.3
		c0,0,0,0,0,0.1c0,0.1,0,0.2,0.1,0.3l1,2.2l-1,2.2c-0.1,0.1-0.1,0.1-0.1,0.2c0,0.2,0.1,0.3,0.3,0.3c0,0,0,0,0,0c0,0,0.1,0,0.1,0
		l3.8-2.8l-3.8-2.7C31.8,61.1,31.8,61.1,31.7,61L31.7,61z"/>
</g>
<g id="trade-5">
	<path class="st1" d="M32.7,68.9l1.7,1.2l-1.7,1.2l0.4-0.9l0.2-0.3l-0.2-0.3L32.7,68.9 M31.7,67.4c-0.2,0-0.3,0.1-0.3,0.3
		c0,0,0,0,0,0c0,0.1,0,0.2,0.1,0.3l1,2.2l-1,2.2c-0.1,0.1-0.1,0.1-0.1,0.2c0,0.2,0.1,0.3,0.3,0.3c0,0,0,0,0,0c0.1,0,0.1,0,0.1,0
		l3.8-2.8l-3.8-2.7C31.9,67.4,31.8,67.4,31.7,67.4L31.7,67.4z"/>
</g>
<g id="trade-6">
	<path class="st1" d="M32.7,75.3l1.7,1.2l-1.7,1.2l0.4-0.9l0.1-0.3l-0.1-0.3L32.7,75.3 M31.7,73.7c-0.2,0-0.3,0.1-0.3,0.3
		c0,0,0,0,0,0.1c0,0.1,0,0.2,0.1,0.3l1,2.2l-1,2.2c-0.1,0.1-0.1,0.1-0.1,0.2c0,0.2,0.1,0.3,0.3,0.3c0,0,0,0,0,0c0.1,0,0.1,0,0.1,0
		l3.8-2.8l-3.8-2.7C31.8,73.8,31.8,73.8,31.7,73.7L31.7,73.7z"/>
</g>
<path class="st1" d="M47.3,62.8h-10c-0.5,0-1,0.4-1,0.9c0,0,0,0.1,0,0.1c0,0.5,0.4,0.9,0.9,1h10.1c0.6,0,1-0.4,1-1
	S47.8,62.8,47.3,62.8z"/>
<path class="st1" d="M47.3,69.2h-10c-0.5,0-1,0.4-1,0.9c0,0,0,0.1,0,0.1c0,0.5,0.4,0.9,0.9,1h10.1c0.6,0,1-0.4,1-1
	S47.8,69.2,47.3,69.2z"/>
<path class="st1" d="M47.3,75.5h-10c-0.5,0-1,0.4-1,0.9c0,0,0,0.1,0,0.1c0,0.5,0.4,0.9,0.9,1h10.1c0.6,0,1-0.4,1-1
	S47.8,75.5,47.3,75.5z"/>
</svg>
