<svg width="100" height="100" viewBox="0 0 100 100" fill="none" xmlns="http://www.w3.org/2000/svg">
<path fill-rule="evenodd" clip-rule="evenodd" d="M35.5 16.5C35.5 15.1193 34.3807 14 33 14C31.6193 14 30.5 15.1193 30.5 16.5V71.5C30.5 72.8807 31.6193 74 33 74H82C83.3807 74 84.5 72.8807 84.5 71.5C84.5 70.1193 83.3807 69 82 69H35.5V16.5ZM77.5 30.9075L60.6398 47.7678C60.1678 48.2397 59.5268 48.5033 58.8594 48.5C58.192 48.4966 57.5536 48.2265 57.0865 47.7498L53.492 44.082L44.5631 59.2672C43.8632 60.4574 42.331 60.8549 41.1408 60.1551C39.9506 59.4552 39.5531 57.923 40.2529 56.7328L50.8369 38.7328C51.2314 38.062 51.9157 37.6131 52.6881 37.5185C53.4605 37.4239 54.2329 37.6944 54.7775 38.2502L58.8899 42.4465L74.3365 27H71C69.6193 27 68.5 25.8807 68.5 24.5C68.5 23.1193 69.6193 22 71 22H80C81.3807 22 82.5 23.1193 82.5 24.5V34.5C82.5 35.8807 81.3807 37 80 37C78.6193 37 77.5 35.8807 77.5 34.5V30.9075Z" fill="white"/>
<path fill-rule="evenodd" clip-rule="evenodd" d="M27 28.5H33V49.5H27C23.6863 49.5 21 46.8137 21 43.5V34.5C21 31.1863 23.6863 28.5 27 28.5ZM24 52.5H33V74H14V62.5C14 56.9772 18.4772 52.5 24 52.5Z" fill="white"/>
<path d="M20.036 91V81.06H23.648C24.7307 81.06 25.636 81.284 26.364 81.732C27.092 82.1707 27.638 82.768 28.002 83.524C28.366 84.2707 28.548 85.1013 28.548 86.016C28.548 87.024 28.3473 87.9013 27.946 88.648C27.5447 89.3947 26.9753 89.9733 26.238 90.384C25.5007 90.7947 24.6373 91 23.648 91H20.036ZM26.602 86.016C26.602 85.372 26.4853 84.8073 26.252 84.322C26.0187 83.8273 25.6827 83.4447 25.244 83.174C24.8053 82.894 24.2733 82.754 23.648 82.754H21.968V89.306H23.648C24.2827 89.306 24.8193 89.166 25.258 88.886C25.6967 88.5967 26.028 88.2047 26.252 87.71C26.4853 87.206 26.602 86.6413 26.602 86.016ZM36.9595 89.306V91H30.0575V81.06H36.8335V82.754H31.9895V85.148H36.1755V86.716H31.9895V89.306H36.9595ZM46.5717 91V84.476L44.0237 89.334H42.9457L40.3977 84.476V91H38.4657V81.06H40.5377L43.4777 86.716L46.4457 81.06H48.5037V91H46.5717ZM53.281 81.06H55.241L58.895 91H56.907L55.983 88.522H52.511L51.601 91H49.613L53.281 81.06ZM55.633 87.164L54.261 83.062L52.833 87.164H55.633ZM61.9172 84.616V91H59.9852V81.06H61.5252L66.6632 87.612V81.074H68.5952V91H66.9852L61.9172 84.616ZM70.663 91V81.06H74.275C75.3576 81.06 76.263 81.284 76.991 81.732C77.719 82.1707 78.265 82.768 78.629 83.524C78.993 84.2707 79.175 85.1013 79.175 86.016C79.175 87.024 78.9743 87.9013 78.573 88.648C78.1716 89.3947 77.6023 89.9733 76.865 90.384C76.1276 90.7947 75.2643 91 74.275 91H70.663ZM77.229 86.016C77.229 85.372 77.1123 84.8073 76.879 84.322C76.6456 83.8273 76.3096 83.4447 75.871 83.174C75.4323 82.894 74.9003 82.754 74.275 82.754H72.595V89.306H74.275C74.9096 89.306 75.4463 89.166 75.885 88.886C76.3236 88.5967 76.655 88.2047 76.879 87.71C77.1123 87.206 77.229 86.6413 77.229 86.016Z" fill="white"/>
</svg>
