<svg width="100" height="100" viewBox="0 0 100 100" fill="none" xmlns="http://www.w3.org/2000/svg">
<path d="M41.7357 54.89L24 36.5092L30.356 30L36.7121 36.5092L41.7357 41.8716L52.6318 30.7129L56 34.0811L67 45.8463L70.96 49.8063L75.5 45.1568V60.5H58.7019L63.6959 55.3856L52.6318 43.7314L41.7357 54.89Z" stroke="white" stroke-width="4" stroke-linecap="round" stroke-linejoin="round"/>
<path d="M28 63L32.5962 67.5962L37.1924 72.1924" stroke="white" stroke-width="5" stroke-linecap="round" stroke-linejoin="round"/>
<path d="M48 64L51.5 67.5L55 71" stroke="white" stroke-width="4" stroke-linecap="round" stroke-linejoin="round"/>
<path d="M67 18L71.5962 22.5962L76.1924 27.1924" stroke="white" stroke-width="5" stroke-linecap="round" stroke-linejoin="round"/>
<path d="M37 15L39.8284 17.8284L42.6569 20.6569" stroke="white" stroke-width="4" stroke-linecap="round" stroke-linejoin="round"/>
<path d="M7.036 92V82.06H10.648C11.7307 82.06 12.636 82.284 13.364 82.732C14.092 83.1707 14.638 83.768 15.002 84.524C15.366 85.2707 15.548 86.1013 15.548 87.016C15.548 88.024 15.3473 88.9013 14.946 89.648C14.5447 90.3947 13.9753 90.9733 13.238 91.384C12.5007 91.7947 11.6373 92 10.648 92H7.036ZM13.602 87.016C13.602 86.372 13.4853 85.8073 13.252 85.322C13.0187 84.8273 12.6827 84.4447 12.244 84.174C11.8053 83.894 11.2733 83.754 10.648 83.754H8.968V90.306H10.648C11.2827 90.306 11.8193 90.166 12.258 89.886C12.6967 89.5967 13.028 89.2047 13.252 88.71C13.4853 88.206 13.602 87.6413 13.602 87.016ZM20.5295 92.07C19.8015 92.07 19.1388 91.93 18.5415 91.65C17.9535 91.37 17.4448 90.992 17.0155 90.516C16.5955 90.0307 16.2688 89.4893 16.0355 88.892C15.8022 88.2853 15.6855 87.6647 15.6855 87.03C15.6855 86.3673 15.8068 85.7373 16.0495 85.14C16.2922 84.5333 16.6328 83.9967 17.0715 83.53C17.5102 83.054 18.0235 82.6807 18.6115 82.41C19.2088 82.13 19.8622 81.99 20.5715 81.99C21.2902 81.99 21.9435 82.1347 22.5315 82.424C23.1288 82.7133 23.6375 83.1007 24.0575 83.586C24.4868 84.0713 24.8135 84.6173 25.0375 85.224C25.2708 85.8213 25.3875 86.4327 25.3875 87.058C25.3875 87.7113 25.2662 88.3413 25.0235 88.948C24.7808 89.5453 24.4402 90.082 24.0015 90.558C23.5722 91.0247 23.0588 91.3933 22.4615 91.664C21.8735 91.9347 21.2295 92.07 20.5295 92.07ZM17.6455 87.03C17.6455 87.6087 17.7575 88.15 17.9815 88.654C18.2148 89.158 18.5462 89.5687 18.9755 89.886C19.4142 90.2033 19.9368 90.362 20.5435 90.362C21.1688 90.362 21.6962 90.1987 22.1255 89.872C22.5548 89.5453 22.8815 89.1253 23.1055 88.612C23.3295 88.0987 23.4415 87.5713 23.4415 87.03C23.4415 86.4513 23.3248 85.91 23.0915 85.406C22.8582 84.902 22.5222 84.496 22.0835 84.188C21.6542 83.8707 21.1408 83.712 20.5435 83.712C19.9182 83.712 19.3908 83.8753 18.9615 84.202C18.5322 84.5287 18.2055 84.9487 17.9815 85.462C17.7575 85.966 17.6455 86.4887 17.6455 87.03ZM29.105 82.088H30.897L32.031 85.378L33.179 82.088H34.957L33.249 86.61L34.509 89.774L37.323 82.06H39.423L35.447 92H33.781L32.031 87.828L30.295 92H28.629L24.667 82.06H26.739L29.567 89.774L30.799 86.61L29.105 82.088ZM41.6033 85.616V92H39.6713V82.06H41.2113L46.3493 88.612V82.074H48.2813V92H46.6713L41.6033 85.616ZM53.709 92.07C53.0557 92.07 52.4444 91.9393 51.875 91.678C51.3057 91.4167 50.8017 91.0573 50.363 90.6C49.9337 90.1333 49.5977 89.592 49.355 88.976C49.1124 88.36 48.991 87.6927 48.991 86.974C48.991 86.2927 49.1124 85.6533 49.355 85.056C49.5977 84.4493 49.9384 83.9173 50.377 83.46C50.8157 83.0027 51.329 82.6433 51.917 82.382C52.505 82.1207 53.1444 81.99 53.835 81.99C54.759 81.99 55.557 82.1907 56.229 82.592C56.901 82.984 57.405 83.5067 57.741 84.16L56.299 85.224C56.047 84.7387 55.6924 84.3653 55.235 84.104C54.787 83.8333 54.297 83.698 53.765 83.698C53.205 83.698 52.7104 83.852 52.281 84.16C51.861 84.468 51.5297 84.874 51.287 85.378C51.0537 85.882 50.937 86.4327 50.937 87.03C50.937 87.6553 51.063 88.22 51.315 88.724C51.567 89.228 51.9124 89.6293 52.351 89.928C52.799 90.2173 53.3077 90.362 53.877 90.362C54.8384 90.362 55.7064 89.9093 56.481 89.004V88.304H54.479V86.89H58.077V92H56.481V90.88C55.6784 91.6733 54.7544 92.07 53.709 92.07ZM58.9536 92V82.06H63.3496C63.8069 82.06 64.2269 82.1533 64.6096 82.34C65.0016 82.5267 65.3376 82.7787 65.6176 83.096C65.9069 83.4133 66.1262 83.768 66.2756 84.16C66.4342 84.552 66.5136 84.9533 66.5136 85.364C66.5136 85.9987 66.3502 86.582 66.0236 87.114C65.7062 87.646 65.2722 88.0287 64.7216 88.262L66.9896 92H64.8616L62.8176 88.668H60.8856V92H58.9536ZM60.8856 86.974H63.3076C63.6716 86.974 63.9702 86.82 64.2036 86.512C64.4462 86.1947 64.5676 85.812 64.5676 85.364C64.5676 85.056 64.5022 84.7807 64.3716 84.538C64.2409 84.2953 64.0729 84.104 63.8676 83.964C63.6716 83.824 63.4569 83.754 63.2236 83.754H60.8856V86.974ZM70.1961 82.06H72.1561L75.8101 92H73.8221L72.8981 89.522H69.4261L68.5161 92H66.5281L70.1961 82.06ZM72.5481 88.164L71.1761 84.062L69.7481 88.164H72.5481ZM76.1304 92V82.06H79.7424C80.825 82.06 81.7304 82.284 82.4584 82.732C83.1864 83.1707 83.7324 83.768 84.0964 84.524C84.4604 85.2707 84.6424 86.1013 84.6424 87.016C84.6424 88.024 84.4417 88.9013 84.0404 89.648C83.639 90.3947 83.0697 90.9733 82.3324 91.384C81.595 91.7947 80.7317 92 79.7424 92H76.1304ZM82.6964 87.016C82.6964 86.372 82.5797 85.8073 82.3464 85.322C82.113 84.8273 81.777 84.4447 81.3384 84.174C80.8997 83.894 80.3677 83.754 79.7424 83.754H78.0624V90.306H79.7424C80.377 90.306 80.9137 90.166 81.3524 89.886C81.791 89.5967 82.1224 89.2047 82.3464 88.71C82.5797 88.206 82.6964 87.6413 82.6964 87.016ZM92.2839 90.306V92H85.3819V82.06H92.1579V83.754H87.3139V86.148H91.4999V87.716H87.3139V90.306H92.2839Z" fill="white"/>
</svg>
