<svg width="100" height="100" viewBox="0 0 100 100" fill="none" xmlns="http://www.w3.org/2000/svg">
<path fill-rule="evenodd" clip-rule="evenodd" d="M55.0577 35.1794H32.8462C27.4083 35.1794 23 39.5877 23 45.0256V79.4871C23 84.925 27.4083 89.3333 32.8462 89.3333H67.3077C72.7456 89.3333 77.1538 84.925 77.1538 79.4871V57.2756C76.1884 57.8341 75.0674 58.1538 73.8719 58.1538C72.6762 58.1538 71.5553 57.8341 70.5897 57.2756V79.4871C70.5897 81.2998 69.1203 82.7692 67.3077 82.7692H32.8462C31.0335 82.7692 29.5641 81.2998 29.5641 79.4871V45.0256C29.5641 43.213 31.0335 41.7435 32.8462 41.7435H55.0577C54.4992 40.778 54.1796 39.6571 54.1796 38.4615C54.1796 37.2659 54.4992 36.1449 55.0577 35.1794Z" fill="black"/>
<path d="M73.8718 28.6154V38.4615M73.8718 48.3077V38.4615M73.8718 38.4615H64.0256M73.8718 38.4615H83.7179" stroke="black" stroke-width="6.5641" stroke-linecap="round" stroke-linejoin="round"/>
<path d="M58.7436 11V16.7436M58.7436 22.4872V16.7436M58.7436 16.7436H53M58.7436 16.7436H64.4872" stroke="black" stroke-width="6.5641" stroke-linecap="round" stroke-linejoin="round"/>
</svg>
