<svg xmlns="http://www.w3.org/2000/svg" viewBox="0 0 16.89 18.29"><defs><style>.cls-1{fill:#fff;}</style></defs><g id="Layer_2" data-name="Layer 2"><g id="navigation"><g id="trade-4"><path class="cls-1" d="M1.33,1.57,3,2.8,1.33,4l.39-.94.14-.3-.14-.3-.39-.93M.33,0A.31.31,0,0,0,0,.29V.34A.36.36,0,0,0,.11.6l1,2.2L.11,5A.3.3,0,0,0,0,5.27a.31.31,0,0,0,.29.33h0a.17.17,0,0,0,.14,0L4.29,2.83.5.11A.21.21,0,0,0,.33,0Z"/></g><g id="trade-5"><path class="cls-1" d="M1.36,7.88,3.08,9.12,1.36,10.35l.39-.94.15-.29-.15-.3-.39-.94m-1-1.57a.31.31,0,0,0-.32.3v0a.36.36,0,0,0,.11.26l1,2.21-1,2.24a.27.27,0,0,0-.11.22.31.31,0,0,0,.28.34H.5L4.33,9.16.54,6.43a.25.25,0,0,0-.18-.08Z"/></g><g id="trade-6"><path class="cls-1" d="M1.33,14.25,3,15.49,1.33,16.72l.39-.94.14-.29-.14-.3-.39-.94m-1-1.56A.3.3,0,0,0,0,13V13a.36.36,0,0,0,.11.26l1,2.21-1,2.24A.27.27,0,0,0,0,18a.32.32,0,0,0,.3.34H.47l3.82-2.76L.5,12.8a.21.21,0,0,0-.17-.07Z"/></g><path class="cls-1" d="M15.89,1.8h-10a1,1,0,0,0-1,.88V2.8a1.06,1.06,0,0,0,.9,1h10.1a1,1,0,1,0,0-2Z"/><path class="cls-1" d="M15.89,8.12h-10a1,1,0,0,0-1,.88v.12a1.06,1.06,0,0,0,.9,1h10.1a1,1,0,0,0,0-2Z"/><path class="cls-1" d="M15.89,14.49h-10a1,1,0,0,0-1,.88v.12a1.06,1.06,0,0,0,.9,1h10.1a1,1,0,1,0,0-2Z"/></g></g></svg>