<svg width="100" height="100" viewBox="0 0 100 100" fill="none" xmlns="http://www.w3.org/2000/svg">
<path fill-rule="evenodd" clip-rule="evenodd" d="M39.768 25.7762H80.5931C82.7405 25.7762 84.4812 27.5171 84.4812 29.6644V70.4895C84.4812 72.6369 82.7405 74.3777 80.5931 74.3777H40.7541L42.1376 79.2462C42.4149 80.2221 42.477 81.2082 42.3521 82.1539H80.5931C87.0352 82.1539 92.2574 76.9316 92.2574 70.4895V29.6644C92.2574 23.2223 87.0352 18 80.5931 18H39.768C33.326 18 28.1036 23.2223 28.1036 29.6644V37.7999C31.0634 41.1162 32.502 45.3394 33.2806 48.079L35.8799 57.2256V29.6644C35.8799 27.5171 37.6206 25.7762 39.768 25.7762Z" fill="black"/>
<path d="M35.2115 81.2144L26.3545 50.0473C24.8783 44.8527 21.8712 38.2219 14.2525 40.387C6.63395 42.5521 7.56327 49.7733 9.03944 54.9678" stroke="black" stroke-width="7.20026" stroke-linecap="round" stroke-linejoin="round"/>
<path d="M83.1903 25.4877L63.0511 30.8187M42.3196 25.4877L47.0582 38.519L42.3196 25.4877ZM47.0582 38.519L58.3125 52.7349L47.0582 38.519ZM47.0582 38.519L63.0511 30.8187L47.0582 38.519ZM58.3125 52.7349L75.49 62.2122L58.3125 52.7349ZM58.3125 52.7349L67.7897 38.519L58.3125 52.7349ZM75.49 62.2122L88.5213 65.1738L87.9289 46.8116L77.8593 42.6653L75.49 62.2122ZM75.49 62.2122L77.8593 42.6653L75.49 62.2122ZM67.7897 38.519L83.1903 25.4877L67.7897 38.519ZM67.7897 38.519L63.0511 30.8187L67.7897 38.519ZM67.7897 38.519L77.8593 42.6653L67.7897 38.519ZM58.3125 23.1184L63.0511 30.8187L58.3125 23.1184ZM83.1903 25.4877L77.8593 42.6653L83.1903 25.4877Z" stroke="black" stroke-width="5.92329" stroke-linecap="round" stroke-linejoin="round"/>
</svg>
