<svg width="100" height="100" viewBox="0 0 100 100" fill="none" xmlns="http://www.w3.org/2000/svg">
<path fill-rule="evenodd" clip-rule="evenodd" d="M50.3212 72.2206V80.1219C50.3212 84.4729 53.8483 88 58.1993 88H80.5208C84.8718 88 88.399 84.4729 88.399 80.1219V59.1134C88.399 54.7624 84.8718 51.2352 80.5208 51.2352H71.7627V63.0965C71.7627 68.1356 67.6777 72.2206 62.6386 72.2206H50.3212Z" fill="#A6A6A6"/>
<mask id="mask0_329_6" style="mask-type:alpha" maskUnits="userSpaceOnUse" x="50" y="51" width="39" height="37">
<rect x="50.3212" y="51.2352" width="38.0778" height="36.7648" rx="7.87817" fill="black"/>
</mask>
<g mask="url(#mask0_329_6)">
<path fill-rule="evenodd" clip-rule="evenodd" d="M82.2554 68.4138C83.2632 68.4138 84.0802 66.3713 84.0802 63.8517C84.0802 61.3322 83.2632 59.2897 82.2554 59.2897C81.2475 59.2897 80.4305 61.3322 80.4305 63.8517C80.4305 66.3713 81.2475 68.4138 82.2554 68.4138ZM83.7529 73.3438C83.7042 72.5168 82.9944 71.8858 82.1674 71.9345C81.3404 71.9831 80.7094 72.693 80.758 73.52C80.8584 75.2261 81.8417 77.3509 83.2255 78.9689C84.6067 80.5839 86.7342 82.0822 89.2846 81.7634C90.1066 81.6606 90.6897 80.9109 90.5869 80.0889C90.4842 79.2669 89.7345 78.6838 88.9125 78.7865C87.8132 78.9239 86.5952 78.2932 85.5053 77.019C84.418 75.7476 83.8046 74.2228 83.7529 73.3438Z" fill="white"/>
</g>
<path fill-rule="evenodd" clip-rule="evenodd" d="M31.1605 52.1476V61.8737C31.1605 66.2247 34.6877 69.7519 39.0387 69.7519H61.3602C65.7112 69.7519 69.2384 66.2247 69.2384 61.8737V40.8652C69.2384 36.5142 65.7112 32.9871 61.3602 32.9871H52.6022V43.0236C52.6022 48.0626 48.5172 52.1476 43.4781 52.1476H31.1605Z" fill="#555555"/>
<mask id="mask1_329_6" style="mask-type:alpha" maskUnits="userSpaceOnUse" x="31" y="32" width="39" height="38">
<rect x="31.1605" y="32.9871" width="38.0778" height="36.7648" rx="7.87817" fill="black"/>
</mask>
<g mask="url(#mask1_329_6)">
<path fill-rule="evenodd" clip-rule="evenodd" d="M63.0948 50.1656C64.1027 50.1656 64.9197 48.1231 64.9197 45.6035C64.9197 43.084 64.1027 41.0415 63.0948 41.0415C62.087 41.0415 61.27 43.084 61.27 45.6035C61.27 48.1231 62.087 50.1656 63.0948 50.1656ZM64.5922 55.0957C64.5436 54.2687 63.8337 53.6377 63.0067 53.6864C62.1797 53.735 61.5488 54.4449 61.5974 55.2719C61.6978 56.978 62.6811 59.1029 64.0648 60.7208C65.4461 62.3358 67.5735 63.8341 70.1239 63.5153C70.946 63.4125 71.529 62.6628 71.4263 61.8408C71.3235 61.0188 70.5738 60.4357 69.7518 60.5384C68.6526 60.6758 67.4345 60.0451 66.3447 58.7709C65.2574 57.4995 64.6439 55.9747 64.5922 55.0957Z" fill="white"/>
</g>
<rect x="12" y="12.9141" width="38.0778" height="36.7648" rx="7.87817" fill="black"/>
<mask id="mask2_329_6" style="mask-type:alpha" maskUnits="userSpaceOnUse" x="12" y="12" width="39" height="38">
<rect x="12" y="12.9141" width="38.0778" height="36.7648" rx="7.87817" fill="black"/>
</mask>
<g mask="url(#mask2_329_6)">
<path fill-rule="evenodd" clip-rule="evenodd" d="M43.9342 30.0926C44.942 30.0926 45.759 28.0501 45.759 25.5305C45.759 23.011 44.942 20.9685 43.9342 20.9685C42.9264 20.9685 42.1094 23.011 42.1094 25.5305C42.1094 28.0501 42.9264 30.0926 43.9342 30.0926ZM45.4317 35.0228C45.3831 34.1958 44.6732 33.5648 43.8462 33.6134C43.0192 33.6621 42.3882 34.3719 42.4369 35.1989C42.5372 36.9051 43.5205 39.0299 44.9043 40.6478C46.2856 42.2629 48.413 43.7611 50.9634 43.4423C51.7854 43.3396 52.3685 42.5899 52.2658 41.7679C52.163 40.9458 51.4133 40.3627 50.5913 40.4655C49.4921 40.6029 48.274 39.9722 47.1842 38.6979C46.0968 37.4266 45.4834 35.9018 45.4317 35.0228Z" fill="white"/>
</g>
</svg>
