<svg width="381" height="417" viewBox="0 0 381 417" fill="none" xmlns="http://www.w3.org/2000/svg">
<path fill-rule="evenodd" clip-rule="evenodd" d="M15.9782 96.5644C19.0895 93.1591 172.525 3.97942 178.728 1.97063C184.519 0.0956292 195.814 0.287035 201.728 2.3593C204.478 3.32414 241.994 24.5341 285.093 49.4941C346.004 84.7656 363.888 95.5624 365.383 97.9589C367.828 101.879 367.129 106.127 363.455 109.679C360.189 112.836 207.802 201.052 201.865 203.223C195.679 205.483 182.591 205.238 176.982 202.757C168.549 199.026 18.9606 112.058 16.0856 109.215C12.2536 105.424 12.2126 100.684 15.9782 96.5644ZM0.75165 137.68C1.08563 135.831 2.48993 133.188 3.87079 131.809C4.52899 131.149 5.0954 130.574 5.76727 130.179C10.2165 127.563 19.2946 132.815 90.2888 173.73C171.359 220.452 172.449 221.181 177.902 232.288L180.728 238.042L181 323.3C181.256 403.335 181.466 412.025 177.664 414.466C177.023 414.877 176.269 415.11 175.383 415.477C174.336 415.911 173.328 416.144 172.281 416.181C171.275 416.216 170.234 416.068 169.086 415.742C163.781 414.236 17.2614 329.21 12.0173 324.595C9.05243 321.984 6.08954 317.973 4.01727 313.767L0.728212 307.086L0.435243 224.063C0.275087 178.401 0.415712 139.528 0.75165 137.68ZM287.234 175.591C327.656 152.243 362.287 132.33 364.189 131.341C370.705 127.955 376.744 129.543 379.113 135.263C379.968 137.33 380.201 160.189 380 222.575L379.728 307.086L376.533 313.563C374.775 317.127 371.4 321.901 369.033 324.174C365.22 327.833 337.781 343.97 227.228 407.563C219.802 411.836 212.299 415.631 210.55 416C205.841 416.992 201.564 414.42 200.215 409.786C199.457 407.178 199.216 380.551 199.425 322.042L199.728 238.042L203.008 231.763C203.955 229.948 205.275 227.845 206.611 225.961C207.818 224.258 209.041 222.733 210.013 221.763C212.322 219.458 241.705 201.889 287.234 175.591ZM156.709 155.255C156.605 155.195 112.912 80.6308 101.724 61.4228C101.599 61.2079 101.55 61.0126 101.617 60.9882C101.722 60.9491 234.172 41.5185 234.252 41.5292C234.302 41.537 289.424 135.809 289.41 135.865C289.386 135.971 156.849 155.337 156.709 155.255ZM202.793 87.412C202.646 87.4159 196.886 88.247 189.996 89.2597C186.576 89.7626 183.451 90.2245 181.162 90.5663C178.838 90.913 177.375 91.1347 177.34 91.1474C177.271 91.1728 177.244 91.2538 177.277 91.3281C177.437 91.6786 187.769 109.278 187.881 109.389C187.97 109.478 191.636 108.981 200.607 107.662C207.539 106.643 213.328 105.783 213.474 105.751C213.586 105.726 213.552 105.542 213.011 104.545C212.705 103.978 212.236 103.15 211.537 101.94C210.785 100.637 209.767 98.8886 208.4 96.5488C206.595 93.4609 205.384 91.3954 204.562 90.0224C203.254 87.8339 202.937 87.4081 202.793 87.412ZM23.9997 283.863C23.9704 283.744 45.0466 201.057 50.5231 179.809C50.5837 179.571 50.6852 179.406 50.7458 179.442C50.8454 179.499 154.539 270.153 154.588 270.224C154.617 270.268 127.886 374.714 127.84 374.741C127.752 374.792 24.0407 284.026 23.9997 283.863ZM101.783 275.59C101.679 275.478 97.1794 271.528 91.7829 266.811C86.3864 262.096 81.9177 258.207 81.8552 258.17C81.7907 258.133 81.7165 258.164 81.6891 258.239C81.6442 258.357 81.0563 260.635 80.2966 263.615L79.0876 268.362C77.8337 273.3 76.5974 278.204 76.5974 278.282C76.5974 278.411 79.4391 280.947 86.4645 287.085C89.5856 289.812 92.4138 292.279 94.277 293.901C95.654 295.101 96.5036 295.838 96.5544 295.877C96.7575 296.031 97.0056 295.151 99.3727 285.92C100.31 282.265 100.912 279.898 101.285 278.367C101.816 276.181 101.879 275.695 101.783 275.59ZM257.519 224.303C252.338 250.393 232.392 351.675 232.42 351.756C232.459 351.866 330.603 324.433 330.685 324.288C330.732 324.21 356.027 196.16 356 196.151C355.955 196.136 257.824 223.658 257.73 223.712C257.672 223.745 257.578 224.012 257.519 224.303ZM296.566 261.55C301.674 260.115 305.931 258.936 306.029 258.931C306.183 258.921 305.9 260.456 303.748 271.339C301.508 282.662 301.273 283.766 301.082 283.841C301.023 283.864 299.916 284.182 298.177 284.674L291.533 286.547C288.931 287.277 286.935 287.831 285.47 288.226C283.191 288.841 282.195 289.073 282.195 289C282.195 288.926 283.353 282.991 284.533 276.977C285.728 270.884 286.949 264.709 287.011 264.469C287.039 264.367 287.109 264.256 287.17 264.222C287.23 264.186 291.459 262.984 296.566 261.55Z" fill="black"/>
</svg>
