<svg width="100" height="100" viewBox="0 0 100 100" fill="none" xmlns="http://www.w3.org/2000/svg">
<path fill-rule="evenodd" clip-rule="evenodd" d="M68.5 18.6C68.5 14.4026 65.0974 11 60.9 11H39.1C34.9026 11 31.5 14.4026 31.5 18.6V40.4C31.5 44.5974 34.9026 48 39.1 48H60.9C65.0974 48 68.5 44.5974 68.5 40.4V18.6ZM62.25 20.75C62.25 22.2688 61.0188 23.5 59.5 23.5C57.9812 23.5 56.75 22.2688 56.75 20.75C56.75 19.2312 57.9812 18 59.5 18C61.0188 18 62.25 19.2312 62.25 20.75ZM59.25 41.25C57.7313 41.25 56.5 40.0188 56.5 38.5C56.5 36.9812 57.7313 35.75 59.25 35.75C60.7688 35.75 62 36.9812 62 38.5C62 40.0188 60.7688 41.25 59.25 41.25ZM42.0001 41.5001C43.5189 41.5001 44.7501 40.2689 44.7501 38.7501C44.7501 37.2313 43.5189 36.0001 42.0001 36.0001C40.4813 36.0001 39.2501 37.2313 39.2501 38.7501C39.2501 40.2689 40.4813 41.5001 42.0001 41.5001ZM41.2499 23.7501C39.7312 23.7501 38.4999 22.5189 38.4999 21.0001C38.4999 19.4813 39.7312 18.2501 41.2499 18.2501C42.7687 18.2501 43.9999 19.4813 43.9999 21.0001C43.9999 22.5189 42.7687 23.7501 41.2499 23.7501Z" fill="black"/>
<path fill-rule="evenodd" clip-rule="evenodd" d="M49 58.6C49 54.4026 45.5974 51 41.4 51H19.6C15.4026 51 12 54.4026 12 58.6V80.4C12 84.5974 15.4026 88 19.6 88H41.4C45.5974 88 49 84.5974 49 80.4V58.6ZM39.8222 63.7334C41.341 63.7334 42.5722 62.5022 42.5722 60.9834C42.5722 59.4646 41.341 58.2334 39.8222 58.2334C38.3034 58.2334 37.0722 59.4646 37.0722 60.9834C37.0722 62.5022 38.3034 63.7334 39.8222 63.7334ZM30.6222 72.9334C32.141 72.9334 33.3722 71.7022 33.3722 70.1834C33.3722 68.6646 32.141 67.4334 30.6222 67.4334C29.1035 67.4334 27.8722 68.6646 27.8722 70.1834C27.8722 71.7022 29.1035 72.9334 30.6222 72.9334ZM24.6834 79.3835C24.6834 80.9023 23.4522 82.1335 21.9334 82.1335C20.4146 82.1335 19.1834 80.9023 19.1834 79.3835C19.1834 77.8647 20.4146 76.6335 21.9334 76.6335C23.4522 76.6335 24.6834 77.8647 24.6834 79.3835Z" fill="black"/>
<path fill-rule="evenodd" clip-rule="evenodd" d="M89 58.6C89 54.4026 85.5974 51 81.4 51H59.6C55.4026 51 52 54.4026 52 58.6V80.4C52 84.5974 55.4026 88 59.6 88H81.4C85.5974 88 89 84.5974 89 80.4V58.6ZM70.75 72.5C72.2688 72.5 73.5 71.2688 73.5 69.75C73.5 68.2312 72.2688 67 70.75 67C69.2312 67 68 68.2312 68 69.75C68 71.2688 69.2312 72.5 70.75 72.5Z" fill="black"/>
</svg>
