<svg width="465" height="518" viewBox="0 0 465 518" fill="none" xmlns="http://www.w3.org/2000/svg">
<path fill-rule="evenodd" clip-rule="evenodd" d="M26.3418 113.935C19.1816 118.115 19.2305 124.875 26.4277 129.044C90.623 165.983 154.953 202.926 219.42 239.873C226.715 244.042 238.449 244.042 245.635 239.873C309.137 202.926 372.502 165.983 435.734 129.044C442.871 124.875 442.736 118.115 435.439 113.935C370.975 76.9951 306.648 40.0566 242.459 3.11719C235.213 -1.03906 223.576 -1.03906 216.451 3.11719C153.221 40.0566 89.8516 76.9951 26.3418 113.935ZM251.791 173.536C257.105 161.694 262.414 149.854 267.719 138.012L271.594 129.304C278.053 114.863 284.506 100.419 290.957 85.9707L214.158 97.8125L201.541 99.835C181.047 103.018 160.545 106.192 140.035 109.357C127.92 111.245 123.947 120.016 132.898 125.159C145.264 132.271 157.633 139.383 170.01 146.492L198.691 162.96L224.484 177.755C233.473 182.911 248.652 180.567 251.791 173.536ZM12.9902 155.5C5.81641 151.357 0 154.716 0 163V383C0 391.284 5.81641 401.357 12.9902 405.5L203.516 515.5C210.689 519.643 216.506 516.284 216.506 508V288C216.506 279.716 210.689 269.643 203.516 265.5L12.9902 155.5ZM73.502 378.639L112.203 375.133L121.676 374.25L168.875 369.999L120.377 309.5L112.352 299.612L73.502 251.234C65.8535 241.709 56.291 242.575 56.291 252.793V357.207C56.291 367.425 65.8535 379.331 73.502 378.639ZM247.928 287.999C247.996 279.716 253.867 269.643 261.041 265.5L451.566 155.5C458.74 151.357 464.502 154.716 464.434 162.999L462.629 382.992C462.561 391.276 456.689 401.35 449.516 405.491L258.99 515.491C251.816 519.634 246.055 516.276 246.123 507.992L247.928 287.999ZM358.922 370.567L320.01 418.759C312.318 428.284 302.809 427.418 302.893 417.201L303.75 312.791C303.834 302.573 313.447 290.667 321.055 291.359L359.689 294.878L367.674 295.497L415.904 299.995L368.447 358.745L358.922 370.567Z" fill="black"/>
</svg>
