<svg width="100" height="100" viewBox="0 0 100 100" fill="none" xmlns="http://www.w3.org/2000/svg">
<path d="M24.172 49.366C25.048 49.366 25.804 49.258 26.44 49.042C27.076 48.814 27.598 48.508 28.006 48.124C28.414 47.728 28.714 47.266 28.906 46.738C29.098 46.21 29.194 45.634 29.194 45.01C29.194 43.774 28.78 42.814 27.952 42.13C27.136 41.446 25.888 41.104 24.208 41.104H21.4V49.366H24.172ZM36.826 63.118H31.948C31.036 63.118 30.376 62.77 29.968 62.074L25 54.064C24.796 53.752 24.568 53.524 24.316 53.38C24.076 53.236 23.716 53.164 23.236 53.164H21.4V63.118H16V37H24.208C26.032 37 27.592 37.192 28.888 37.576C30.184 37.948 31.246 38.47 32.074 39.142C32.902 39.814 33.508 40.618 33.892 41.554C34.276 42.478 34.468 43.498 34.468 44.614C34.468 45.478 34.342 46.3 34.09 47.08C33.85 47.848 33.496 48.55 33.028 49.186C32.56 49.822 31.984 50.386 31.3 50.878C30.616 51.37 29.836 51.766 28.96 52.066C29.308 52.258 29.632 52.492 29.932 52.768C30.232 53.032 30.502 53.35 30.742 53.722L36.826 63.118Z" fill="white"/>
<path d="M53.8869 53.2L51.0609 45.208C50.8929 44.788 50.7129 44.296 50.5209 43.732C50.3409 43.168 50.1669 42.556 49.9989 41.896C49.8309 42.568 49.6509 43.192 49.4589 43.768C49.2789 44.332 49.1049 44.824 48.9369 45.244L46.1289 53.2H53.8869ZM62.9589 63.118H58.7649C58.2969 63.118 57.9129 63.01 57.6129 62.794C57.3249 62.566 57.1089 62.278 56.9649 61.93L55.2009 56.944H44.7969L43.0329 61.93C42.9129 62.23 42.7029 62.506 42.4029 62.758C42.1029 62.998 41.7249 63.118 41.2689 63.118H37.0389L47.2449 37H52.7709L62.9589 63.118Z" fill="white"/>
<path d="M74.9162 49.996C76.6082 49.996 77.8442 49.588 78.6242 48.772C79.4162 47.956 79.8122 46.84 79.8122 45.424C79.8122 44.776 79.7102 44.188 79.5062 43.66C79.3142 43.12 79.0143 42.664 78.6063 42.292C78.2103 41.908 77.7062 41.614 77.0942 41.41C76.4822 41.206 75.7562 41.104 74.9162 41.104H71.4963V49.996H74.9162ZM74.9162 37C76.7042 37 78.2462 37.21 79.5422 37.63C80.8502 38.05 81.9243 38.638 82.7643 39.394C83.6043 40.138 84.2222 41.026 84.6182 42.058C85.0262 43.09 85.2302 44.212 85.2302 45.424C85.2302 46.708 85.0202 47.884 84.6003 48.952C84.1803 50.02 83.5442 50.938 82.6922 51.706C81.8402 52.474 80.7662 53.074 79.4702 53.506C78.1742 53.926 76.6562 54.136 74.9162 54.136H71.4963V63.118H66.0962V37H74.9162Z" fill="white"/>
<path d="M24.1448 69.3184C25.0179 69.3184 25.7714 69.368 26.4053 69.4673C27.0392 69.572 27.5594 69.7126 27.9661 69.889C28.3727 70.071 28.6717 70.2833 28.8631 70.5258C29.0544 70.7684 29.1501 71.0331 29.1501 71.3198C29.1501 71.8877 28.7375 72.3287 27.9123 72.643C27.099 72.9573 25.8551 73.1144 24.1807 73.1144H21.382V69.3184H24.1448ZM36.7567 63H31.895C30.986 63 30.3282 63.1599 29.9215 63.4797L24.9701 67.1599C24.7667 67.3032 24.5395 67.408 24.2883 67.4742C24.0491 67.5403 23.6903 67.5734 23.2119 67.5734H21.382V63H16V75H24.1807C25.9986 75 27.5534 74.9118 28.8451 74.7354C30.1368 74.5644 31.1953 74.3246 32.0205 74.0159C32.8458 73.7071 33.4498 73.3377 33.8325 72.9076C34.2152 72.4831 34.4066 72.0145 34.4066 71.5017C34.4066 71.1048 34.281 70.7271 34.0298 70.3687C33.7906 70.0159 33.4378 69.6933 32.9714 69.4011C32.5049 69.1089 31.9308 68.8498 31.2491 68.6237C30.5674 68.3977 29.79 68.2157 28.9169 68.0779C29.2637 67.9897 29.5867 67.8822 29.8857 67.7553C30.1847 67.634 30.4538 67.4879 30.693 67.317L36.7567 63Z" fill="url(#paint0_linear)"/>
<path d="M53.7609 67.5569L50.9443 71.2288C50.7769 71.4218 50.5975 71.6478 50.4061 71.907C50.2267 72.1661 50.0533 72.4473 49.8858 72.7505C49.7184 72.4418 49.539 72.1551 49.3476 71.8904C49.1682 71.6313 48.9948 71.4052 48.8274 71.2123L46.0287 67.5569H53.7609ZM62.8027 63H58.6227C58.1562 63 57.7735 63.0496 57.4745 63.1489C57.1875 63.2536 56.9722 63.3859 56.8287 63.5458L55.0705 65.8367H44.7011L42.943 63.5458C42.8234 63.408 42.6141 63.2812 42.3151 63.1654C42.0161 63.0551 41.6393 63 41.1849 63H36.9689L47.141 75H52.6486L62.8027 63Z" fill="url(#paint1_linear)"/>
<path d="M74.7203 69.0289C76.4067 69.0289 77.6386 69.2164 78.416 69.5913C79.2053 69.9662 79.6 70.479 79.6 71.1296C79.6 71.4273 79.4984 71.6975 79.295 71.94C79.1037 72.1881 78.8047 72.3977 78.398 72.5686C78.0034 72.745 77.501 72.8801 76.8911 72.9738C76.2811 73.0675 75.5575 73.1144 74.7203 73.1144H71.3117V69.0289H74.7203ZM74.7203 75C76.5024 75 78.0392 74.9035 79.3309 74.7105C80.6346 74.5176 81.705 74.2474 82.5422 73.9001C83.3794 73.5582 83.9954 73.1502 84.39 72.6761C84.7967 72.2019 85 71.6864 85 71.1296C85 70.5396 84.7907 69.9993 84.3721 69.5086C83.9535 69.0179 83.3196 68.5961 82.4704 68.2433C81.6213 67.8904 80.5508 67.6147 79.2592 67.4163C77.9675 67.2233 76.4545 67.1268 74.7203 67.1268H71.3117V63H65.9296V75H74.7203Z" fill="url(#paint2_linear)"/>
<defs>
<linearGradient id="paint0_linear" x1="50.5" y1="75" x2="50.5" y2="63" gradientUnits="userSpaceOnUse">
<stop stop-color="white" stop-opacity="0"/>
<stop offset="0.907552" stop-color="white" stop-opacity="0.15"/>
<stop offset="1" stop-color="white" stop-opacity="0"/>
</linearGradient>
<linearGradient id="paint1_linear" x1="50.5" y1="75" x2="50.5" y2="63" gradientUnits="userSpaceOnUse">
<stop stop-color="white" stop-opacity="0"/>
<stop offset="0.907552" stop-color="white" stop-opacity="0.15"/>
<stop offset="1" stop-color="white" stop-opacity="0"/>
</linearGradient>
<linearGradient id="paint2_linear" x1="50.5" y1="75" x2="50.5" y2="63" gradientUnits="userSpaceOnUse">
<stop stop-color="white" stop-opacity="0"/>
<stop offset="0.907552" stop-color="white" stop-opacity="0.15"/>
<stop offset="1" stop-color="white" stop-opacity="0"/>
</linearGradient>
</defs>
</svg>
