<svg width="100" height="100" viewBox="0 0 100 100" fill="none" xmlns="http://www.w3.org/2000/svg">
<path d="M62.0854 67H37.439M62.0854 67L63.0131 54.9692M62.0854 67H71H37.439M37.439 67L36.3257 54.9692M37.439 67H28M36.3257 54.9692L34.2927 33H44.5M36.3257 54.9692H63.0131M63.0131 54.9692L63.3 52" stroke="white" stroke-width="4" stroke-linecap="round" stroke-linejoin="round"/>
<path d="M61 30L51 33L61 36L64 46L67 36L77 33L67 30L64 20L61 30Z" stroke="white" stroke-width="3" stroke-linecap="round" stroke-linejoin="round"/>
<path d="M53.9231 21.9231L52 22.5L53.9231 23.0769L54.5 25L55.0769 23.0769L57 22.5L55.0769 21.9231L54.5 20L53.9231 21.9231Z" stroke="white" stroke-width="3" stroke-linecap="round" stroke-linejoin="round"/>
<path d="M73.9231 42.9231L72 43.5L73.9231 44.0769L74.5 46L75.0769 44.0769L77 43.5L75.0769 42.9231L74.5 41L73.9231 42.9231Z" stroke="white" stroke-width="2" stroke-linecap="round" stroke-linejoin="round"/>
<path d="M28.036 91V81.06H32.432C32.8893 81.06 33.3093 81.1533 33.692 81.34C34.084 81.5267 34.42 81.7787 34.7 82.096C34.9893 82.4133 35.2087 82.768 35.358 83.16C35.5167 83.552 35.596 83.9533 35.596 84.364C35.596 84.9987 35.4327 85.582 35.106 86.114C34.7887 86.646 34.3547 87.0287 33.804 87.262L36.072 91H33.944L31.9 87.668H29.968V91H28.036ZM29.968 85.974H32.39C32.754 85.974 33.0527 85.82 33.286 85.512C33.5287 85.1947 33.65 84.812 33.65 84.364C33.65 84.056 33.5847 83.7807 33.454 83.538C33.3233 83.2953 33.1553 83.104 32.95 82.964C32.754 82.824 32.5393 82.754 32.306 82.754H29.968V85.974ZM40.0485 81.06H42.0085L45.6625 91H43.6745L42.7505 88.522H39.2785L38.3685 91H36.3805L40.0485 81.06ZM42.4005 87.164L41.0285 83.062L39.6005 87.164H42.4005ZM46.7528 91V81.06H51.1488C51.6061 81.06 52.0261 81.1533 52.4088 81.34C52.8008 81.5267 53.1368 81.7787 53.4168 82.096C53.7061 82.4133 53.9255 82.768 54.0748 83.16C54.2335 83.552 54.3128 83.9533 54.3128 84.364C54.3128 84.9987 54.1495 85.582 53.8228 86.114C53.5055 86.646 53.0715 87.0287 52.5208 87.262L54.7888 91H52.6608L50.6168 87.668H48.6848V91H46.7528ZM48.6848 85.974H51.1068C51.4708 85.974 51.7695 85.82 52.0028 85.512C52.2455 85.1947 52.3668 84.812 52.3668 84.364C52.3668 84.056 52.3015 83.7807 52.1708 83.538C52.0401 83.2953 51.8721 83.104 51.6668 82.964C51.4708 82.824 51.2561 82.754 51.0228 82.754H48.6848V85.974ZM62.9653 89.306V91H56.0633V81.06H62.8393V82.754H57.9953V85.148H62.1813V86.716H57.9953V89.306H62.9653ZM70.3935 83.664C70.3095 83.5707 70.1322 83.4493 69.8615 83.3C69.5909 83.1413 69.2642 83.0013 68.8815 82.88C68.5082 82.7493 68.1209 82.684 67.7195 82.684C66.6649 82.684 66.1375 83.0573 66.1375 83.804C66.1375 84.0747 66.2215 84.2893 66.3895 84.448C66.5575 84.6067 66.8095 84.742 67.1455 84.854C67.4815 84.966 67.9015 85.0873 68.4055 85.218C69.0589 85.386 69.6235 85.582 70.0995 85.806C70.5849 86.03 70.9535 86.3287 71.2055 86.702C71.4669 87.066 71.5975 87.5513 71.5975 88.158C71.5975 88.8673 71.4249 89.4413 71.0795 89.88C70.7435 90.3093 70.2955 90.622 69.7355 90.818C69.1755 91.014 68.5689 91.112 67.9155 91.112C67.1689 91.112 66.4269 91 65.6895 90.776C64.9615 90.5427 64.3129 90.2253 63.7435 89.824L64.5975 88.158C64.6815 88.242 64.8309 88.354 65.0455 88.494C65.2602 88.6247 65.5215 88.76 65.8295 88.9C66.1375 89.0307 66.4735 89.1427 66.8375 89.236C67.2015 89.3293 67.5702 89.376 67.9435 89.376C69.0075 89.376 69.5395 89.0353 69.5395 88.354C69.5395 88.0647 69.4322 87.8313 69.2175 87.654C69.0029 87.4767 68.6995 87.3273 68.3075 87.206C67.9249 87.0847 67.4769 86.9493 66.9635 86.8C66.3289 86.6227 65.8015 86.4267 65.3815 86.212C64.9709 85.988 64.6629 85.7127 64.4575 85.386C64.2522 85.05 64.1495 84.6253 64.1495 84.112C64.1495 83.4307 64.3082 82.8613 64.6255 82.404C64.9522 81.9373 65.3909 81.5873 65.9415 81.354C66.4922 81.1113 67.1035 80.99 67.7755 80.99C68.4662 80.99 69.1102 81.102 69.7075 81.326C70.3049 81.55 70.8182 81.8067 71.2475 82.096L70.3935 83.664Z" fill="white"/>
</svg>
