<svg width="100" height="100" viewBox="0 0 100 100" fill="none" xmlns="http://www.w3.org/2000/svg">
<path fill-rule="evenodd" clip-rule="evenodd" d="M67.5 29.0391C70.3928 30.6678 72 33.9251 72 37.1824V52.8176C72 56.0749 70.3928 59.3323 67.5 60.9609L54.3214 68.7785C51.4286 70.4072 47.8929 70.4072 45 68.7785L31.8214 60.9609C28.6071 59.3323 27 56.0749 27 52.8176V37.1824C27 33.9251 28.9286 30.6678 31.5 29.0391L44.6786 21.2215C47.5714 19.5928 51.1071 19.5928 54 21.2215L67.5 29.0391ZM46.2857 24.1531L33.4286 31.9707C31.5 32.9479 30.2143 35.228 30.2143 37.1824V52.4919C30.2143 54.772 31.5 57.0521 33.4286 58.0293L46.2857 65.8469C48.2143 66.8241 50.4643 66.8241 52.3929 65.8469L65.5714 58.0293C67.5 57.0521 68.7857 54.772 68.7857 52.4919V37.1824C68.7857 35.228 67.5 32.9479 65.5714 31.9707L52.7143 24.1531C50.7857 23.1759 48.2143 23.1759 46.2857 24.1531ZM52.7143 28.0619L62.3571 33.5993C64.2857 34.9023 65.5714 37.1824 65.5714 39.4625V50.2117C65.5714 52.8176 64.2857 54.772 62.3571 56.0749L52.7143 61.9381C50.7857 63.241 48.2143 63.241 45.9643 61.9381L36.6429 56.4007C34.7143 55.0977 33.4286 52.8176 33.4286 50.5375V39.4625C33.4286 37.1824 34.7143 34.9023 36.6429 33.5993L46.2857 28.0619C48.2143 27.0847 50.7857 27.0847 52.7143 28.0619ZM43.0714 51.5147H55.9286V38.4853H43.0714V51.5147Z" fill="white"/>
<path d="M26.036 92V82.06H30.432C30.8893 82.06 31.3093 82.1533 31.692 82.34C32.084 82.5267 32.42 82.7787 32.7 83.096C32.9893 83.4133 33.2087 83.768 33.358 84.16C33.5167 84.552 33.596 84.9533 33.596 85.364C33.596 85.9987 33.4327 86.582 33.106 87.114C32.7887 87.646 32.3547 88.0287 31.804 88.262L34.072 92H31.944L29.9 88.668H27.968V92H26.036ZM27.968 86.974H30.39C30.754 86.974 31.0527 86.82 31.286 86.512C31.5287 86.1947 31.65 85.812 31.65 85.364C31.65 85.056 31.5847 84.7807 31.454 84.538C31.3233 84.2953 31.1553 84.104 30.95 83.964C30.754 83.824 30.5393 83.754 30.306 83.754H27.968V86.974ZM39.5339 92.07C38.8059 92.07 38.1432 91.93 37.5459 91.65C36.9579 91.37 36.4492 90.992 36.0199 90.516C35.5999 90.0307 35.2732 89.4893 35.0399 88.892C34.8065 88.2853 34.6899 87.6647 34.6899 87.03C34.6899 86.3673 34.8112 85.7373 35.0539 85.14C35.2965 84.5333 35.6372 83.9967 36.0759 83.53C36.5145 83.054 37.0279 82.6807 37.6159 82.41C38.2132 82.13 38.8665 81.99 39.5759 81.99C40.2945 81.99 40.9479 82.1347 41.5359 82.424C42.1332 82.7133 42.6419 83.1007 43.0619 83.586C43.4912 84.0713 43.8179 84.6173 44.0419 85.224C44.2752 85.8213 44.3919 86.4327 44.3919 87.058C44.3919 87.7113 44.2705 88.3413 44.0279 88.948C43.7852 89.5453 43.4445 90.082 43.0059 90.558C42.5765 91.0247 42.0632 91.3933 41.4659 91.664C40.8779 91.9347 40.2339 92.07 39.5339 92.07ZM36.6499 87.03C36.6499 87.6087 36.7619 88.15 36.9859 88.654C37.2192 89.158 37.5505 89.5687 37.9799 89.886C38.4185 90.2033 38.9412 90.362 39.5479 90.362C40.1732 90.362 40.7005 90.1987 41.1299 89.872C41.5592 89.5453 41.8859 89.1253 42.1099 88.612C42.3339 88.0987 42.4459 87.5713 42.4459 87.03C42.4459 86.4513 42.3292 85.91 42.0959 85.406C41.8625 84.902 41.5265 84.496 41.0879 84.188C40.6585 83.8707 40.1452 83.712 39.5479 83.712C38.9225 83.712 38.3952 83.8753 37.9659 84.202C37.5365 84.5287 37.2099 84.9487 36.9859 85.462C36.7619 85.966 36.6499 86.4887 36.6499 87.03ZM53.8819 89.438C53.8819 89.998 53.7372 90.4693 53.4479 90.852C53.1586 91.2253 52.7666 91.51 52.2719 91.706C51.7866 91.902 51.2546 92 50.6759 92H45.8739V82.06H51.1939C51.6606 82.06 52.0619 82.186 52.3979 82.438C52.7339 82.6807 52.9952 82.998 53.1819 83.39C53.3686 83.782 53.4619 84.1833 53.4619 84.594C53.4619 85.0793 53.3406 85.5367 53.0979 85.966C52.8552 86.386 52.5006 86.6987 52.0339 86.904C52.6032 87.072 53.0512 87.3753 53.3779 87.814C53.7139 88.2527 53.8819 88.794 53.8819 89.438ZM47.8059 83.712V86.218H50.3819C50.6992 86.218 50.9746 86.106 51.2079 85.882C51.4412 85.658 51.5579 85.35 51.5579 84.958C51.5579 84.5847 51.4506 84.286 51.2359 84.062C51.0306 83.8287 50.7739 83.712 50.4659 83.712H47.8059ZM51.9359 89.074C51.9359 88.71 51.8239 88.3973 51.5999 88.136C51.3759 87.8747 51.1006 87.744 50.7739 87.744H47.8059V90.362H50.6759C51.0306 90.362 51.3292 90.236 51.5719 89.984C51.8146 89.732 51.9359 89.4287 51.9359 89.074ZM59.6035 92.07C58.8102 92.07 58.1335 91.9393 57.5735 91.678C57.0228 91.4073 56.5748 91.0387 56.2295 90.572C55.8935 90.1053 55.6462 89.578 55.4875 88.99C55.3288 88.3927 55.2495 87.772 55.2495 87.128V82.06H57.1815V87.128C57.1815 87.6787 57.2562 88.2013 57.4055 88.696C57.5548 89.1907 57.8068 89.592 58.1615 89.9C58.5162 90.208 58.9922 90.362 59.5895 90.362C60.2055 90.362 60.6908 90.208 61.0455 89.9C61.4002 89.5827 61.6522 89.1767 61.8015 88.682C61.9508 88.1873 62.0255 87.6693 62.0255 87.128V82.06H63.9435V87.128C63.9435 87.8093 63.8595 88.4487 63.6915 89.046C63.5328 89.6433 63.2762 90.1707 62.9215 90.628C62.5762 91.076 62.1282 91.4307 61.5775 91.692C61.0268 91.944 60.3688 92.07 59.6035 92.07ZM66.9255 82.06L69.3895 85.728L71.8395 82.06H73.9395L70.4955 87.1L73.8275 92H71.7275L69.3895 88.472L67.0375 92H64.9235L68.2555 87.1L64.8115 82.06H66.9255Z" fill="white"/>
</svg>
