<svg xmlns="http://www.w3.org/2000/svg" viewBox="0 0 23.01 24.5"><defs><style>.cls-1{fill:#393b3d;}</style></defs><g id="Layer_2" data-name="Layer 2"><g id="navigation"><g id="avatar-hover"><path class="cls-1" d="M21.41,19.4a9.78,9.78,0,0,0-2.9-.9v.8a4.92,4.92,0,0,1,1.7.6c2.8,1.4-.2,3.5-8.7,3.5s-11.4-2-8.7-3.5c.5-.2,1.1-.4,1.7-.6v-.8a14,14,0,0,0-2.9.9c-3.8,1.9-1,5.1,9.9,5.1S25.21,21.3,21.41,19.4Z"/><path class="cls-1" d="M6,17.5v1.7A2.86,2.86,0,0,0,8.81,22h1.9a.9.9,0,0,0,.9-.9.9.9,0,0,0,.9.9h1.9a2.86,2.86,0,0,0,2.8-2.8V17.5a2.72,2.72,0,0,0,2.5-2.7V13a14.92,14.92,0,0,0-.2-2.1,4.3,4.3,0,0,0-3.4-3.2,19.3,19.3,0,0,0,0-3.4,3.42,3.42,0,0,0-2.7-2.7,19.3,19.3,0,0,0-3.4,0,3.42,3.42,0,0,0-2.7,2.7,19.3,19.3,0,0,0,0,3.4,4.3,4.3,0,0,0-3.4,3.2,14.92,14.92,0,0,0-.2,2.1v1.8a2.45,2.45,0,0,0,2.1,2.7ZM9,4.6c.1-.4.6-1,1-1a14.05,14.05,0,0,1,2.9,0c.4.1,1,.6,1,1a14.05,14.05,0,0,1,0,2.9,1.28,1.28,0,0,1-1,1,14.05,14.05,0,0,1-2.9,0,1.28,1.28,0,0,1-1-1A14.05,14.05,0,0,1,9,4.6ZM5.51,13a10.87,10.87,0,0,1,.1-1.8,2.29,2.29,0,0,1,1.8-1.5,54.75,54.75,0,0,1,8.1,0,2.49,2.49,0,0,1,1.8,1.5,21.66,21.66,0,0,1,.1,3.6c0,.9-.9.8-1.5.8v-3a.5.5,0,1,0-1,0v6.7a.79.79,0,0,1-.8.8h-.6a1,1,0,0,1-1-.9V17.1a1,1,0,0,0-2,0v2a1,1,0,0,1-.9,1h-.9a.86.86,0,0,1-.8-.8V12.6a.5.5,0,1,0-1,0v3h-.6a.79.79,0,0,1-.8-.8h0Z"/></g><g id="avatar-2"><path class="cls-1" d="M21.41,19.4a9.78,9.78,0,0,0-2.9-.9v.8a4.92,4.92,0,0,1,1.7.6c2.8,1.4-.2,3.5-8.7,3.5s-11.4-2-8.7-3.5c.5-.2,1.1-.4,1.7-.6v-.8a14,14,0,0,0-2.9.9c-3.8,1.9-1,5.1,9.9,5.1S25.21,21.3,21.41,19.4Z"/><path class="cls-1" d="M19.51,10.9a4.3,4.3,0,0,0-3.4-3.2,19.3,19.3,0,0,0,0-3.4,3.42,3.42,0,0,0-2.7-2.7,19.3,19.3,0,0,0-3.4,0,3.42,3.42,0,0,0-2.7,2.7,19.3,19.3,0,0,0,0,3.4,4.3,4.3,0,0,0-3.4,3.2,14.92,14.92,0,0,0-.2,2.1v1.8a2.45,2.45,0,0,0,2.1,2.7H6v1.7A2.86,2.86,0,0,0,8.81,22h1.9a.9.9,0,0,0,.9-.9.9.9,0,0,0,.9.9h1.9a2.86,2.86,0,0,0,2.8-2.8V17.5a2.72,2.72,0,0,0,2.5-2.7V13A14.92,14.92,0,0,0,19.51,10.9Zm-1.9.6c-.1.1-.1.2-.2.3a28,28,0,0,1,0,2.9c0,.8-.9.8-1.5.8V12.3h0a.71.71,0,0,1-.6-.3.54.54,0,0,0-.3.4v6.7a.79.79,0,0,1-.8.8h-.7a1,1,0,0,1-1-.9V16.9a1,1,0,0,0-2,0v2a1,1,0,0,1-.9,1h-.9a.86.86,0,0,1-.8-.8V12.4l-.1.1a1.27,1.27,0,0,1-.6.1h-.3v2.9h-.6a.79.79,0,0,1-.8-.8h0V11.9l-.2-.1-.2-.3a.35.35,0,0,0-.1-.2H5c-.1-.1-.1-.3-.2-.5a1.39,1.39,0,0,1,0-.9h0L5,9.5H5l.3-.3h0l.3-.3h.1l.4-.2h0l.4-.1h0V8.5c.1-.2.3-.3.4-.4l.4-.2h.4a1.88,1.88,0,0,1-.2-.8V6.8a.37.37,0,0,1-.1-.3V6.3c0-.2-.1-.4-.1-.6V5.4a.9.9,0,0,1,.1-.5V4.6a1.58,1.58,0,0,1,.1-1.5,1.76,1.76,0,0,1,2-.8,2.19,2.19,0,0,1,.5.3h2.4a2.36,2.36,0,0,1,1.6.7,3.68,3.68,0,0,1,.8,1.5,3.19,3.19,0,0,1,.3,1.4,3.37,3.37,0,0,1-.5,1.7l-.3.3h.2a1.6,1.6,0,0,1,.9.7c0,.1.1.1.1.2h.3a1.58,1.58,0,0,1,1.7,1.5,5.1,5.1,0,0,1,.1.9Z"/><path class="cls-1" d="M12.71,9.2H10v.3h2.9V9.4c0-.1.1-.2.1-.3A.37.37,0,0,1,12.71,9.2Z"/></g><path class="cls-1" d="M9.21,9.9V9.6L8.31,8a.76.76,0,0,1-.2-.4l-1.2-2-.3-1.3-.5-.7-.3-.3h-.4V4l-.2.6-.4.3V6h-.5V7.7l.9,1.1.1.3L5,9.5l-.2.5-.2,1,.3,1.2.7.7.5.3.5.2h.6l.6-.1.4-.1.5-.4.3-.5.3-.6.1-.7Zm-2.4,2.5a1.55,1.55,0,0,1-1.3-1.7,1.72,1.72,0,0,1,1.3-1.3,1.55,1.55,0,0,1,1.3,1.7A1.49,1.49,0,0,1,6.81,12.4Z"/><path class="cls-1" d="M18.31,6V4.9l-.4-.3-.2-.6V3.3h-.4l-.3.3-.5.7-.3,1.3-2.3,4v.3l-.2,1,.1.7.3.6.3.5.5.4.4.1.6.1h.7l.5-.2.5-.3.7-.7.3-1.2-.2-1-.2-.5-.3-.4.1-.3.9-1.1V5.9Zm-2.1,6.4a1.55,1.55,0,0,1-1.3-1.7,1.72,1.72,0,0,1,1.3-1.3,1.55,1.55,0,0,1,1.3,1.7,1.72,1.72,0,0,1-1.3,1.3Z"/><polyline class="cls-1" points="9.21 9.9 13.81 9.9 13.81 8.5 9.21 8.5"/><path class="cls-1" d="M16.11,5.7,16,5.4c-.1-.6,0-.9-.1-1.3a5.64,5.64,0,0,0-.4-1.2,10.91,10.91,0,0,0-.6-1.1,9,9,0,0,0-.9-1,3.48,3.48,0,0,0-1.5-.7,4.87,4.87,0,0,0-1.2-.1,3.55,3.55,0,0,0-1,.2,3.55,3.55,0,0,0-.9.4,2.7,2.7,0,0,0-.8.7,4.3,4.3,0,0,0-.9,1,6.12,6.12,0,0,0-.5,1.2A4,4,0,0,0,6.91,5v.8a6.23,6.23,0,0,0,1.6,3.6,4.35,4.35,0,0,0,.7.4,1.09,1.09,0,0,0,.5.1l.8.2c.2,0,.5.1.7.1h.7c.3,0,.7-.1,1-.1.7-.1,1-.2,1.1-.2A4.61,4.61,0,0,0,16.11,5.7Zm-8.3.1h0a4.33,4.33,0,0,1-.1-.5,2,2,0,0,1,.1-.8h0a1.7,1.7,0,0,0-.1.7A1.27,1.27,0,0,0,7.81,5.8Zm.6,2.1c-.1-.2-.2-.3-.2-.5a2.51,2.51,0,0,0,.4.7A.22.22,0,0,1,8.41,7.9Zm6-1.3a3.54,3.54,0,0,1-.3,1.1c-.1.1-.2.3-.4.4a1.09,1.09,0,0,1-.5.1h-2.9a2.2,2.2,0,0,1-.8-.1A1,1,0,0,1,9,7.7c-.1-.1-.1-.1-.2-.6s-.2-.5-.2-.7a1.7,1.7,0,0,1-.1-.7,1.7,1.7,0,0,1,.1-.7A1.61,1.61,0,0,1,9,4.3c.3-.3.8-.3,1.6-.4h1.7a1.91,1.91,0,0,1,1.3.2,1.21,1.21,0,0,1,.5.5,1.69,1.69,0,0,1,.3,1,3.33,3.33,0,0,1,0,1Z"/><path class="cls-1" d="M8.91,7.8c-.1-.3-.3-.6-.4-.9a6.89,6.89,0,0,1-.3-.8V4.5a.62.62,0,0,0-.6-.4.42.42,0,0,0-.3.6v.9a2.77,2.77,0,0,0,.1.9,3.55,3.55,0,0,0,.4.9l.4.9a.57.57,0,0,0,.7.2c.1-.2.2-.5,0-.7Z"/><path class="cls-1" d="M5.91,9.1a.35.35,0,0,0-.1-.2l-.1-.1c-.1,0-.2-.1-.3-.1h-.2c-.1,0-.1,0-.2.1a.35.35,0,0,0-.1.2v.3a.35.35,0,0,0,.1.2l.1.1c.1,0,.2.1.3.1h.2q.15,0,.3-.3V9.1Z"/></g></g></svg>