<svg xmlns="http://www.w3.org/2000/svg" viewBox="0 0 23.01 24.58"><defs><style>.cls-1{fill:#bdbebe;}</style></defs><g id="Layer_2" data-name="Layer 2"><g id="navigation"><g id="avatar"><path class="cls-1" d="M21.41,19.48a10,10,0,0,0-2.9-.9v.8a8.82,8.82,0,0,1,1.7.6c2.8,1.4-.2,3.5-8.7,3.5s-11.4-2-8.7-3.5a10.09,10.09,0,0,1,1.7-.6v-.8a23.77,23.77,0,0,0-2.9.9c-3.8,1.9-1,5.1,9.9,5.1S25.21,21.38,21.41,19.48Z"/><path class="cls-1" d="M19.51,11a4.31,4.31,0,0,0-3.4-3.2,19.3,19.3,0,0,0,0-3.4,3.43,3.43,0,0,0-2.7-2.7,19.3,19.3,0,0,0-3.4,0,3.4,3.4,0,0,0-2.7,2.7,19.3,19.3,0,0,0,0,3.4A4.28,4.28,0,0,0,3.91,11a13.45,13.45,0,0,0-.2,2.1v1.8a2.4,2.4,0,0,0,2.12,2.68l.18,0v1.7a2.8,2.8,0,0,0,2.8,2.8h1.9a.9.9,0,0,0,.9-.9.9.9,0,0,0,.9.9h1.9a2.8,2.8,0,0,0,2.8-2.8v-1.7a2.74,2.74,0,0,0,2.5-2.7v-1.8A16.4,16.4,0,0,0,19.51,11Zm-1.93.64a2.27,2.27,0,0,1-.19.34c.08,1,0,2.11,0,2.92s-.9.8-1.5.8v-3a.43.43,0,0,0,0-.16h-.05a1.31,1.31,0,0,1-.64-.27.46.46,0,0,0-.27.44v6.7a.8.8,0,0,1-.78.8h-.64a.94.94,0,0,1-1-.88.24.24,0,0,1,0-.12v-2a1,1,0,0,0-2,0v2a1,1,0,0,1-.88,1H8.71a.86.86,0,0,1-.8-.8V12.67l-.14.07a1.15,1.15,0,0,1-.6.14H6.91v2.85h-.6a.79.79,0,0,1-.8-.78V12.13L5.35,12l-.24-.32a.82.82,0,0,1-.1-.24v-.05H5A1.66,1.66,0,0,1,4.82,11a1.76,1.76,0,0,1,0-.91h0L5,9.67H5l.25-.32h0a2.24,2.24,0,0,1,.34-.27h.07L6,8.91h0l.43-.06h0V8.79A1.13,1.13,0,0,1,7,8.39l.37-.16H7.8a1.52,1.52,0,0,1-.22-.77.57.57,0,0,1,0-.26,1.83,1.83,0,0,1-.14-.32.43.43,0,0,1,0-.16,2.32,2.32,0,0,1-.08-.58.43.43,0,0,1,0-.16.14.14,0,0,1,0-.09,1.24,1.24,0,0,1,.06-.47.43.43,0,0,1,0-.16.18.18,0,0,1,0-.15,1.76,1.76,0,0,1,.09-1.52,1.77,1.77,0,0,1,2-.79,2,2,0,0,1,.55.28h1a10.74,10.74,0,0,1,1.39,0,2.41,2.41,0,0,1,1.63.75,4.86,4.86,0,0,1,.84,1.53,3.32,3.32,0,0,1,.25,1.36,4,4,0,0,1-.49,1.73,2.48,2.48,0,0,1-.25.3,1,1,0,0,1,.24.05,1.69,1.69,0,0,1,.94.72.64.64,0,0,0,.1.23A1,1,0,0,1,16,9.7a1.56,1.56,0,0,1,1.6,1.52,2.19,2.19,0,0,1,0,.36Z"/><path class="cls-1" d="M12.7,9.31H10v.34h2.91V9.51a1.31,1.31,0,0,1,.12-.27A2.17,2.17,0,0,1,12.7,9.31Z"/></g><path class="cls-1" d="M9.19,10l.05-.29L8.3,8.12a1.54,1.54,0,0,1-.23-.39l-1.18-2L6.56,4.44l-.47-.71-.34-.34h-.4v.74l-.21.61L4.74,5v1.1H4.27V7.78l.87,1.07.11.34-.31.35-.2.45-.17.95.27,1.18.74.74.47.31.48.23h.6l.58-.13.43-.14.54-.43L9,12.22l.29-.6.14-.68ZM6.85,12.47a1.52,1.52,0,0,1,0-3,1.52,1.52,0,0,1,0,3Z"/><path class="cls-1" d="M18.28,6.1V5l-.4-.25-.21-.61V3.4h-.4l-.34.34-.47.71-.33,1.29-2.35,4,.05.29-.24,1,.14.68.29.6.32.48.54.43.43.14.58.13h.62l.48-.23.47-.31.74-.74L18.47,11l-.17-1-.2-.45-.31-.35.11-.34.87-1.07V6.13Zm-2.11,6.37a1.52,1.52,0,0,1,0-3,1.52,1.52,0,0,1,0,3Z"/><polyline class="cls-1" points="9.19 10 13.83 10 13.83 8.61 9.19 8.56"/><path class="cls-1" d="M16.08,5.74A.7.7,0,0,0,16,5.46c-.13-.58,0-.9-.1-1.28A5.84,5.84,0,0,0,15.5,3a5.9,5.9,0,0,0-.6-1.14,4.51,4.51,0,0,0-1-1A4,4,0,0,0,12.5.11,4.13,4.13,0,0,0,11.29,0a3.74,3.74,0,0,0-1,.17,3.89,3.89,0,0,0-.88.4,4.63,4.63,0,0,0-.84.68,4.79,4.79,0,0,0-.91,1,4.21,4.21,0,0,0-.54,1.18,4.64,4.64,0,0,0-.3,1.47A6,6,0,0,0,8.44,9.26a3.13,3.13,0,0,0,.65.35,3.5,3.5,0,0,0,.56.13l.83.18a5.51,5.51,0,0,0,.71.07h.71a8.52,8.52,0,0,0,1-.12L14,9.66C15.51,9.25,16.35,6.68,16.08,5.74Zm-1.76.93A2.92,2.92,0,0,1,14,7.82a1,1,0,0,1-.36.36,1.15,1.15,0,0,1-.55.11H11.9a12.49,12.49,0,0,0-1.73,0,1.55,1.55,0,0,1-.74-.09,1.17,1.17,0,0,1-.5-.38,1.8,1.8,0,0,1-.21-.63l-.2-.72a3.1,3.1,0,0,1-.13-.74,1.6,1.6,0,0,1,.11-.68,1.71,1.71,0,0,1,.43-.72C9.25,4,9.68,4,10.53,4h1.7a2.61,2.61,0,0,1,1.35.2,1.7,1.7,0,0,1,.54.46,1.78,1.78,0,0,1,.33,1A4.73,4.73,0,0,1,14.32,6.67Z"/></g></g></svg>