<svg xmlns="http://www.w3.org/2000/svg" viewBox="0 0 23.01 24.58"><defs><style>.cls-1{fill:#fff;}</style></defs><g id="Layer_2" data-name="Layer 2"><g id="navigation"><g id="avatar-hover"><path class="cls-1" d="M21.41,19.48a10,10,0,0,0-2.9-.9v.8a8.82,8.82,0,0,1,1.7.6c2.8,1.4-.2,3.5-8.7,3.5s-11.4-2-8.7-3.5a10.09,10.09,0,0,1,1.7-.6v-.8a23.77,23.77,0,0,0-2.9.9c-3.8,1.9-1,5.1,9.9,5.1S25.21,21.38,21.41,19.48Z"/><path class="cls-1" d="M6,17.58v1.7a2.8,2.8,0,0,0,2.8,2.8h1.9a.9.9,0,0,0,.9-.9.9.9,0,0,0,.9.9h1.9a2.8,2.8,0,0,0,2.8-2.8v-1.7a2.74,2.74,0,0,0,2.5-2.7v-1.8a16.23,16.23,0,0,0-.2-2.1,4.31,4.31,0,0,0-3.4-3.2,19.3,19.3,0,0,0,0-3.4,3.43,3.43,0,0,0-2.7-2.7,19.3,19.3,0,0,0-3.4,0,3.4,3.4,0,0,0-2.7,2.7,19.3,19.3,0,0,0,0,3.4A4.28,4.28,0,0,0,3.91,11a13.34,13.34,0,0,0-.2,2.1v1.8a2.4,2.4,0,0,0,2.12,2.68ZM9,4.68c.1-.4.6-1,1-1a14.05,14.05,0,0,1,2.9,0c.4.1,1,.6,1,1a14.05,14.05,0,0,1,0,2.9,1.48,1.48,0,0,1-1,1,14.05,14.05,0,0,1-2.9,0,1.44,1.44,0,0,1-1-1A14.05,14.05,0,0,1,9,4.68Zm-3.5,8.4a9.83,9.83,0,0,1,.1-1.8,2.32,2.32,0,0,1,1.8-1.5,54.75,54.75,0,0,1,8.1,0,2.57,2.57,0,0,1,1.8,1.5,22.77,22.77,0,0,1,.1,3.6c0,.9-.9.8-1.5.8v-3a.5.5,0,0,0-.5-.5.5.5,0,0,0-.5.5v6.7a.8.8,0,0,1-.78.8h-.62a.94.94,0,0,1-1-.88.24.24,0,0,1,0-.12v-2a1,1,0,0,0-2,0v2a1,1,0,0,1-.88,1H8.71a.86.86,0,0,1-.8-.8v-6.7a.5.5,0,0,0-.5-.5.5.5,0,0,0-.5.5v3h-.6a.79.79,0,0,1-.8-.78V13.08Z"/></g><g id="avatar-2"><path class="cls-1" d="M21.41,19.48a10,10,0,0,0-2.9-.9v.8a8.82,8.82,0,0,1,1.7.6c2.8,1.4-.2,3.5-8.7,3.5s-11.4-2-8.7-3.5a10.09,10.09,0,0,1,1.7-.6v-.8a23.77,23.77,0,0,0-2.9.9c-3.8,1.9-1,5.1,9.9,5.1S25.21,21.38,21.41,19.48Z"/><path class="cls-1" d="M19.51,11a4.31,4.31,0,0,0-3.4-3.2,19.3,19.3,0,0,0,0-3.4,3.43,3.43,0,0,0-2.7-2.7,19.3,19.3,0,0,0-3.4,0,3.4,3.4,0,0,0-2.7,2.7,19.3,19.3,0,0,0,0,3.4A4.28,4.28,0,0,0,3.91,11a13.34,13.34,0,0,0-.2,2.1v1.8a2.4,2.4,0,0,0,2.12,2.68l.18,0v1.7a2.8,2.8,0,0,0,2.8,2.8h1.9a.9.9,0,0,0,.9-.9.9.9,0,0,0,.9.9h1.9a2.8,2.8,0,0,0,2.8-2.8v-1.7a2.74,2.74,0,0,0,2.5-2.7v-1.8A16.23,16.23,0,0,0,19.51,11Zm-1.93.64a2.27,2.27,0,0,1-.19.34c.08,1,0,2.11,0,2.92s-.9.8-1.5.8v-3a.43.43,0,0,0,0-.16h0a1.31,1.31,0,0,1-.64-.27.46.46,0,0,0-.27.44v6.7a.8.8,0,0,1-.78.8h-.69a.94.94,0,0,1-1-.88.24.24,0,0,1,0-.12v-2a1,1,0,0,0-2,0v2a1,1,0,0,1-.88,1H8.71a.86.86,0,0,1-.8-.8V12.67l-.14.07a1.15,1.15,0,0,1-.6.14H6.91v2.85h-.6a.79.79,0,0,1-.8-.78V12.13L5.35,12l-.24-.32a.82.82,0,0,1-.1-.24v-.05H5A1.66,1.66,0,0,1,4.82,11a1.76,1.76,0,0,1,0-.91h0L5,9.67H5l.25-.32h0a2.24,2.24,0,0,1,.34-.27h.07L6,8.91H6l.43-.06h0V8.79a1.13,1.13,0,0,1,.44-.4l.37-.16h.47a1.52,1.52,0,0,1-.22-.77.57.57,0,0,1,0-.26,2.22,2.22,0,0,1-.14-.32.43.43,0,0,1,0-.16,2.32,2.32,0,0,1-.08-.58.43.43,0,0,1,0-.16.14.14,0,0,1,0-.09,1.24,1.24,0,0,1,.06-.47.43.43,0,0,1,0-.16V5.11a1.76,1.76,0,0,1,.09-1.52,1.77,1.77,0,0,1,2-.79,2,2,0,0,1,.55.28H11a10.74,10.74,0,0,1,1.39,0A2.41,2.41,0,0,1,14,3.83a4.86,4.86,0,0,1,.84,1.53,3.32,3.32,0,0,1,.25,1.36,4,4,0,0,1-.49,1.73,2.48,2.48,0,0,1-.25.3,1,1,0,0,1,.24.05,1.69,1.69,0,0,1,.94.72.64.64,0,0,0,.1.23A1,1,0,0,1,16,9.7a1.56,1.56,0,0,1,1.65,1.46,1.49,1.49,0,0,1,0,.42Z"/><path class="cls-1" d="M12.7,9.31H10v.34h2.91V9.51a1.31,1.31,0,0,1,.12-.27A2.17,2.17,0,0,1,12.7,9.31Z"/></g><path class="cls-1" d="M9.19,10V9.71L8.25,8.12A1.54,1.54,0,0,1,8,7.73l-1.18-2L6.51,4.44,6,3.73,5.7,3.39H5.3v.74l-.21.61L4.69,5v1.1H4.22V7.78l.87,1.07.11.34-.31.35-.2.45-.17.95.27,1.18.74.74.47.31.48.23h.6l.58-.13.43-.14.54-.43L9,12.22l.29-.6.14-.68ZM6.85,12.47a1.52,1.52,0,0,1,0-3,1.52,1.52,0,0,1,0,3Z"/><path class="cls-1" d="M18.28,6.1V5l-.4-.25-.21-.61V3.4h-.4l-.34.34-.47.71-.33,1.29-2.35,4V10l-.24,1,.14.68.29.6.32.48.54.43.43.14.58.13h.67l.48-.23.47-.31.74-.74L18.47,11l-.17-1-.2-.45-.31-.35.11-.34.87-1.07V6.13Zm-2.11,6.37a1.52,1.52,0,0,1,0-3,1.52,1.52,0,0,1,0,3Z"/><polyline class="cls-1" points="9.19 10 13.83 10 13.83 8.61 9.19 8.56"/><path class="cls-1" d="M16.13,5.74l-.08-.28c-.13-.58,0-.9-.1-1.28A6.45,6.45,0,0,0,15.55,3a5.94,5.94,0,0,0-.61-1.14,4.47,4.47,0,0,0-.94-1A4,4,0,0,0,12.55.11,4.13,4.13,0,0,0,11.34,0a3.74,3.74,0,0,0-1,.17,3.82,3.82,0,0,0-.87.4,4.24,4.24,0,0,0-.84.68,4.79,4.79,0,0,0-.91,1,4.21,4.21,0,0,0-.54,1.18,5,5,0,0,0-.31,1.47,3.48,3.48,0,0,0,0,.79A5.62,5.62,0,0,0,8.51,9.26a2.61,2.61,0,0,0,.66.35,3.39,3.39,0,0,0,.55.13l.84.18a5.51,5.51,0,0,0,.71.07H12a8.52,8.52,0,0,0,1-.12l1.12-.21C15.51,9.25,16.39,6.68,16.13,5.74Zm-8.36.18V6a1.86,1.86,0,0,1-.07-.52,2.18,2.18,0,0,1,.13-.84v0a3.59,3.59,0,0,0-.11.72A4.46,4.46,0,0,0,7.77,5.92ZM8.37,8a1.44,1.44,0,0,1-.2-.52,5.26,5.26,0,0,0,.36.71A1.46,1.46,0,0,1,8.37,8Zm6-1.35A3.13,3.13,0,0,1,14,7.82a1.37,1.37,0,0,1-.36.36,1.15,1.15,0,0,1-.55.11H12a12.49,12.49,0,0,0-1.73,0,1.59,1.59,0,0,1-.75-.09A1.09,1.09,0,0,1,9,7.82c-.06-.08-.08-.14-.22-.63s-.15-.53-.19-.72a3.12,3.12,0,0,1-.14-.74,2,2,0,0,1,.11-.68A1.84,1.84,0,0,1,9,4.33C9.31,4,9.74,4,10.58,4h1.71a2.48,2.48,0,0,1,1.34.2,1.73,1.73,0,0,1,.55.46,2,2,0,0,1,.33,1,6.29,6.29,0,0,1-.15,1.06Z"/><path class="cls-1" d="M8.87,7.88C8.73,7.6,8.6,7.31,8.46,7s-.24-.5-.34-.75a1,1,0,0,1,0-.34V5.53a2.72,2.72,0,0,0,0-.9.51.51,0,0,0-.62-.35.5.5,0,0,0-.35.61,2.29,2.29,0,0,1,0,.37v.45a2.07,2.07,0,0,0,.08.89,6.79,6.79,0,0,0,.39.87l.43.92a.5.5,0,0,0,.87-.51H8.87Z"/><path class="cls-1" d="M6,9.14a.8.8,0,0,0-.13-.22l-.1-.08a.57.57,0,0,0-.25-.06h0a.31.31,0,0,0-.19,0,.25.25,0,0,0-.16.1A.36.36,0,0,0,5,9a.34.34,0,0,0,0,.2v.13a.42.42,0,0,0,.13.22l.1.08a.52.52,0,0,0,.25.07h0A.54.54,0,0,0,6,9.43a.61.61,0,0,0,0-.19Z"/></g></g></svg>