<?xml version="1.0" encoding="utf-8"?>
<svg viewBox="25.091 239.819 26.798 30.95" xmlns="http://www.w3.org/2000/svg">
  <defs>
    <style>
      .cls-1 {
        fill: #fff;
      }

      .cls-2 {
        fill: #bdbebe;
      }
    </style>
  </defs>
  <g id="avatar-hover">
    <path class="cls-1" d="M51.9,271.9A9.92,9.92,0,0,0,49,271v.8a8.51,8.51,0,0,1,1.7.6c2.8,1.4-.2,3.5-8.7,3.5s-11.4-2-8.7-3.5a10.72,10.72,0,0,1,1.7-.6V271a25.71,25.71,0,0,0-2.9.9c-3.8,1.9-1,5.1,9.9,5.1S55.7,273.8,51.9,271.9Z" transform="translate(-1.9 -8)"/>
    <path class="cls-1" d="M36.5,270v1.7a2.8,2.8,0,0,0,2.8,2.8h1.9a.9.9,0,0,0,.9-.9.9.9,0,0,0,.9.9h1.9a2.8,2.8,0,0,0,2.8-2.8V270a2.72,2.72,0,0,0,2.5-2.7v-1.8a14.92,14.92,0,0,0-.2-2.1,4.3,4.3,0,0,0-3.4-3.2,19.29,19.29,0,0,0,0-3.4,3.42,3.42,0,0,0-2.7-2.7,19.29,19.29,0,0,0-3.4,0,3.42,3.42,0,0,0-2.7,2.7,19.29,19.29,0,0,0,0,3.4,4.3,4.3,0,0,0-3.4,3.2,14.92,14.92,0,0,0-.2,2.1v1.8A2.42,2.42,0,0,0,36.5,270Zm3-12.9c.1-.4.6-1,1-1a14,14,0,0,1,2.9,0c.4.1,1,.6,1,1a14.05,14.05,0,0,1,0,2.9,1.44,1.44,0,0,1-1,1,14.05,14.05,0,0,1-2.9,0,1.44,1.44,0,0,1-1-1A14.05,14.05,0,0,1,39.5,257.1ZM36,265.5a10.87,10.87,0,0,1,.1-1.8,2.35,2.35,0,0,1,1.8-1.5,54.75,54.75,0,0,1,8.1,0,2.55,2.55,0,0,1,1.8,1.5,22,22,0,0,1,.1,3.6c0,.9-.9.8-1.5.8v-3a.5.5,0,0,0-1,0v6.7a.79.79,0,0,1-.8.8H44a.94.94,0,0,1-1-1v-2a1,1,0,0,0-2,0v2a.94.94,0,0,1-1,1h-.8a.86.86,0,0,1-.8-.8v-6.7a.5.5,0,0,0-1,0v3h-.6a.79.79,0,0,1-.8-.8Z" transform="translate(-1.9 -8)"/>
  </g>
  <g>
    <g id="avatar-2" data-name="avatar">
      <path class="cls-1" d="M51.9,271.9A9.92,9.92,0,0,0,49,271v.8a8.51,8.51,0,0,1,1.7.6c2.8,1.4-.2,3.5-8.7,3.5s-11.4-2-8.7-3.5a10.72,10.72,0,0,1,1.7-.6V271a25.71,25.71,0,0,0-2.9.9c-3.8,1.9-1,5.1,9.9,5.1S55.7,273.8,51.9,271.9Z" transform="translate(-1.9 -8)"/>
      <path class="cls-1" d="M50,263.4a4.3,4.3,0,0,0-3.4-3.2,19.29,19.29,0,0,0,0-3.4,3.42,3.42,0,0,0-2.7-2.7,19.29,19.29,0,0,0-3.4,0,3.42,3.42,0,0,0-2.7,2.7,19.29,19.29,0,0,0,0,3.4,4.3,4.3,0,0,0-3.4,3.2,14.92,14.92,0,0,0-.2,2.1v1.8a2.42,2.42,0,0,0,2.3,2.7v1.7a2.8,2.8,0,0,0,2.8,2.8h1.9a.9.9,0,0,0,.9-.9.9.9,0,0,0,.9.9h1.9a2.8,2.8,0,0,0,2.8-2.8V270a2.72,2.72,0,0,0,2.5-2.7v-1.8A14.92,14.92,0,0,0,50,263.4Zm-1.93.64a1.86,1.86,0,0,1-.19.34c.08,1,0,2.11,0,2.92s-.9.8-1.5.8v-3a.42.42,0,0,0,0-.16h0a1.33,1.33,0,0,1-.64-.27.46.46,0,0,0-.27.44v6.7a.79.79,0,0,1-.8.8H44a.94.94,0,0,1-1-1v-2a1,1,0,0,0-2,0v2a.94.94,0,0,1-1,1h-.8a.86.86,0,0,1-.8-.8v-6.72a.91.91,0,0,1-.14.07,1.15,1.15,0,0,1-.6.14l-.26,0v2.85h-.6a.79.79,0,0,1-.8-.8v-1.8c0-.33,0-.65,0-1l-.16-.11-.24-.32a1.22,1.22,0,0,1-.1-.24l0-.05,0,0a2,2,0,0,1-.19-.46,1.76,1.76,0,0,1,0-.91v0h0l.16-.37,0,0,.25-.32h0a2.68,2.68,0,0,1,.34-.27l.07,0,.4-.17h0l0,0h0l.43-.06h0s0,0,0-.06a1.14,1.14,0,0,1,.44-.4l.37-.16.14,0,.33,0a1.61,1.61,0,0,1-.22-.77.78.78,0,0,1,0-.26,3.09,3.09,0,0,1-.14-.32,1.24,1.24,0,0,1,0-.16,2.89,2.89,0,0,1-.08-.58.86.86,0,0,1,0-.16.28.28,0,0,1,0-.09c0-.16,0-.32.06-.47a.75.75,0,0,1,.05-.16c0-.05,0-.1,0-.15a1.8,1.8,0,0,1,.09-1.52,1.78,1.78,0,0,1,2-.79,1.91,1.91,0,0,1,.55.28l.17,0c.26,0,.52,0,.78,0a10.75,10.75,0,0,1,1.39,0,2.43,2.43,0,0,1,1.63.75,4.77,4.77,0,0,1,.84,1.53,3.22,3.22,0,0,1,.25,1.36,3.88,3.88,0,0,1-.49,1.73,1.81,1.81,0,0,1-.25.3,1,1,0,0,1,.24.05,1.7,1.7,0,0,1,.94.72c0,.07.06.15.1.23a1.34,1.34,0,0,1,.3-.05A1.56,1.56,0,0,1,48.07,264Z" transform="translate(-1.9 -8)"/>
      <path class="cls-1" d="M43.19,261.73c-.84,0-1.67,0-2.5,0l-.18,0v.12a1.55,1.55,0,0,1,0,.22c1,0,1.94,0,2.91,0l0-.14a1.59,1.59,0,0,1,.12-.27A1.64,1.64,0,0,1,43.19,261.73Z" transform="translate(-1.9 -8)"/>
    </g>
    <path class="cls-1" d="M39.68,262.42l0-.29-.94-1.59a1.9,1.9,0,0,1-.23-.39l-1.18-2-.33-1.29-.47-.71-.34-.34h-.4v.74l-.21.61-.4.25v1.1h-.47v1.69l.87,1.07.11.34-.31.35-.2.45-.17.95.27,1.18.74.74.47.31.48.23h.6l.58-.13.43-.14.54-.43.32-.48.29-.6.14-.68Zm-2.34,2.47a1.52,1.52,0,0,1,0-3A1.52,1.52,0,0,1,37.34,264.89Z" transform="translate(-1.9 -8)"/>
    <path class="cls-1" d="M48.77,258.52v-1.1l-.4-.25-.21-.61v-.74h-.4l-.34.34-.47.71-.33,1.29-2.35,4,0,.29-.24.95.14.68.29.6.32.48.54.43.43.14.58.13H47l.48-.23.47-.31.74-.74.27-1.18-.17-.95-.2-.45-.31-.35.11-.34.87-1.07v-1.69Zm-2.11,6.37a1.52,1.52,0,0,1,0-3A1.52,1.52,0,0,1,46.66,264.89Z" transform="translate(-1.9 -8)"/>
    <polyline class="cls-1" points="37.78 254.42 42.42 254.42 42.42 253.03 37.78 252.98"/>
    <path class="cls-1" d="M46.62,258.16l-.08-.28c-.13-.58,0-.9-.1-1.28a5.81,5.81,0,0,0-.4-1.22,1,1,0,0,1-.08-.18H46l.42-.7-.26-.63v-5.21h-.62l-1.33.16V253a.1.1,0,0,0,0,.09,4.19,4.19,0,0,0-.75-.39v-4.42H40.12v4.46l-1.73,1.17,1.38-.93v-4.17l-1.44-.11h-.57v5.21h0l-.3.63.48.62a4.34,4.34,0,0,0-.29.74,5.32,5.32,0,0,0-.31,1.47,4.67,4.67,0,0,0,0,.79A5.67,5.67,0,0,0,39,261.68a2.72,2.72,0,0,0,.66.35,3.49,3.49,0,0,0,.55.13l.84.18a5.38,5.38,0,0,0,.71.07,5.22,5.22,0,0,0,.7,0,7.11,7.11,0,0,0,1-.12c.68-.12,1-.18,1.12-.21C46,261.67,46.88,259.1,46.62,258.16Zm-8.36.18v.06a2.41,2.41,0,0,1-.07-.52,2.43,2.43,0,0,1,.13-.84l0-.05a4.22,4.22,0,0,0-.11.72A5.53,5.53,0,0,0,38.26,258.34Zm5-6.54a.36.36,0,0,1-.32.2.33.33,0,0,1-.32-.22.29.29,0,0,1,0-.27.33.33,0,0,1,.27-.13.33.33,0,0,1,.27.09A.39.39,0,0,1,43.23,251.8Zm0,1.71a.36.36,0,0,1-.32.2.33.33,0,0,1-.32-.22.3.3,0,0,1,0-.27.33.33,0,0,1,.27-.13.34.34,0,0,1,.27.1A.37.37,0,0,1,43.23,253.51Zm0-2.26H40.41v-.34H43.2Zm-1.11.55a.34.34,0,0,1-.32.2.33.33,0,0,1-.32-.22.29.29,0,0,1,0-.27.36.36,0,0,1,.28-.13.32.32,0,0,1,.26.09A.36.36,0,0,1,42.09,251.8Zm0,1.71a.34.34,0,0,1-.32.2.33.33,0,0,1-.32-.22.3.3,0,0,1,0-.27.36.36,0,0,1,.28-.13.33.33,0,0,1,.26.1A.34.34,0,0,1,42.09,253.51ZM41,251.8a.35.35,0,0,1-.64,0,.29.29,0,0,1,0-.27.36.36,0,0,1,.28-.13.31.31,0,0,1,.26.09A.36.36,0,0,1,41,251.8Zm0,1.71a.35.35,0,0,1-.64,0,.3.3,0,0,1,0-.27.36.36,0,0,1,.28-.13.32.32,0,0,1,.26.1A.34.34,0,0,1,41,253.51Zm1.57-5a.34.34,0,0,1,.27-.13.31.31,0,0,1,.27.1.37.37,0,0,1,0,.32.35.35,0,0,1-.32.2.33.33,0,0,1-.32-.22A.3.3,0,0,1,42.59,248.54Zm-1.09.83a.36.36,0,0,1,.28-.13.32.32,0,0,1,.26.09.36.36,0,0,1,.05.33.34.34,0,0,1-.32.2.33.33,0,0,1-.32-.22A.29.29,0,0,1,41.5,249.37Zm-1.1.94a.36.36,0,0,1,.28-.13.32.32,0,0,1,.26.1.33.33,0,1,1-.59.3A.33.33,0,0,1,40.4,250.31Zm-1.54,10.13a1.66,1.66,0,0,1-.2-.52,5.22,5.22,0,0,0,.36.71A1.6,1.6,0,0,1,38.86,260.44Zm6-1.35a2.87,2.87,0,0,1-.35,1.15,1.19,1.19,0,0,1-.36.36,1.14,1.14,0,0,1-.55.11c-.39,0-.77,0-1.15,0a12.49,12.49,0,0,0-1.73,0,1.61,1.61,0,0,1-.75-.09,1.11,1.11,0,0,1-.49-.38c-.06-.08-.08-.14-.22-.63s-.15-.53-.19-.72a3.65,3.65,0,0,1-.14-.74,2.19,2.19,0,0,1,.11-.68,1.92,1.92,0,0,1,.44-.72c.32-.3.75-.33,1.59-.38.59,0,.41,0,1.71,0a2.58,2.58,0,0,1,1.34.2,1.79,1.79,0,0,1,.55.46,1.87,1.87,0,0,1,.33,1A5.68,5.68,0,0,1,44.85,259.09Z" transform="translate(-1.9 -8)"/>
  </g>
</svg>