<svg width="100" height="100" viewBox="0 0 100 100" fill="none" xmlns="http://www.w3.org/2000/svg">
<path fill-rule="evenodd" clip-rule="evenodd" d="M18 30.0687V75.7887C18 78.7757 20.4214 81.1972 23.4085 81.1972H39.4825L36.4526 73.9859H25.2113V47.2316L18 30.0687ZM59.1772 26.2113H40.8228L37.8527 19.1423C37.8327 19.0947 37.8123 19.0472 37.7917 19H62.2082C62.1876 19.0472 62.1673 19.0947 62.1473 19.1423L59.1772 26.2113ZM63.5474 73.9859H74.7887V47.2315L82 30.0687V75.7887C82 78.7757 79.5786 81.1972 76.5915 81.1972H60.5174L63.5474 73.9859Z" fill="black"/>
<path d="M27.4647 23.5072L49.9999 77.141L72.5351 23.5072" stroke="black" stroke-width="7.21127" stroke-linecap="round" stroke-linejoin="round"/>
</svg>
