<svg width="100" height="100" viewBox="0 0 100 100" fill="none" xmlns="http://www.w3.org/2000/svg">
<path fill-rule="evenodd" clip-rule="evenodd" d="M86.0024 71.6416C82.5441 77.3823 77.7516 82.2284 72.0541 85.7506C72.5226 84.4355 73.0215 82.8988 73.5191 81.1388C74.1072 79.0588 74.6933 76.668 75.2253 73.9635C77.1707 73.6255 78.9776 73.2703 80.6327 72.9149C82.6563 72.4804 84.4543 72.0455 86.0024 71.6416ZM88.511 66.7868C90.7552 61.6456 92 55.9682 92 50C92 44.4531 90.9247 39.1573 88.9712 34.3098C88.8451 34.256 88.713 34.2004 88.5748 34.1431C86.9259 33.4595 84.413 32.5343 81.0218 31.6045C79.5167 31.1918 77.8381 30.7781 75.9848 30.3841C75.9994 30.4796 76.014 30.5755 76.0285 30.6716L48 23.1614V8.04678C42.9313 8.28441 38.0975 9.42053 33.6543 11.2995C33.51 11.733 33.3346 12.2766 33.1359 12.9243C32.5544 14.8202 31.7746 17.6065 30.9932 21.1351C30.7117 22.4065 30.4301 23.7738 30.1577 25.23C30.2822 25.2118 30.4072 25.1938 30.5328 25.176L23.3453 52H8.04678C8.29229 57.237 9.49693 62.2232 11.489 66.7868C11.568 66.8106 11.6487 66.8347 11.731 66.8592C13.6886 67.4414 16.5649 68.222 20.207 69.004C21.1012 69.196 22.0412 69.388 23.025 69.5772L47.4143 76.1123C41.0786 76.0002 35.2708 75.4869 30.1624 74.7953C30.4334 76.2421 30.7134 77.6009 30.9932 78.8649C31.7745 82.3935 32.5544 85.1798 33.1359 87.0757C33.3346 87.7234 33.51 88.267 33.6543 88.7005C38.0975 90.5795 42.9312 91.7156 48 91.9532V76.2692L52 77.341V91.9532C57.1581 91.7114 62.0728 90.5392 66.5802 88.6005C66.7377 88.2672 66.9252 87.8546 67.1357 87.3624C67.8178 85.767 68.7415 83.3343 69.67 80.0504C70.1231 78.4482 70.5774 76.6428 71.0055 74.6325C70.7931 74.663 70.5794 74.6932 70.3645 74.723L71.4913 70.5177C71.5932 70.5023 71.6948 70.4868 71.7961 70.4713C71.9366 69.6349 72.0712 68.7708 72.1984 67.8788L77.5249 48H91.9189V52H77.3919C77.2996 58.8126 76.7417 64.7309 75.9613 69.7681C77.3172 69.518 78.5962 69.261 79.793 69.004C83.4351 68.222 86.3114 67.4414 88.269 66.8592L88.405 66.8186L88.511 66.7868ZM71.0138 25.4066C65.6719 24.5732 59.3392 23.9711 52 23.8776V8.04678C57.1581 8.28859 62.0728 9.46084 66.5802 11.3995C66.7378 11.7328 66.9252 12.1454 67.1357 12.6376C67.8178 14.233 68.7415 16.6657 69.6701 19.9496C70.126 21.5621 70.5833 23.3806 71.0138 25.4066ZM23.8794 48C23.9755 41.3911 24.5384 35.3636 25.2947 30.121C22.9271 30.5916 20.8224 31.0988 18.9782 31.6045C15.587 32.5343 13.0741 33.4595 11.4252 34.1431C11.287 34.2004 11.1549 34.256 11.0288 34.3098C9.31142 38.5714 8.27277 43.1794 8.04678 48H23.8794ZM27.0878 20.2703C27.6517 17.7239 28.2162 15.5456 28.7131 13.7864C22.4408 17.4812 17.2127 22.7591 13.578 29.0708C14.8393 28.6439 16.2863 28.1949 17.9205 27.7469C20.2291 27.1139 22.9101 26.4831 25.9671 25.9197C26.3264 23.8783 26.7071 21.9899 27.0878 20.2703ZM19.3673 72.9149C21.3601 73.3428 23.5729 73.7705 25.9825 74.168C26.3374 76.1758 26.7125 78.0347 27.0878 79.7297C27.6517 82.2761 28.2162 84.4544 28.7131 86.2136C22.6783 82.6586 17.61 77.6382 13.9976 71.6416C15.5457 72.0455 17.3437 72.4804 19.3673 72.9149ZM82.0795 27.7469C80.0818 27.1991 77.8054 26.6531 75.2478 26.1509C74.7098 23.3993 74.1155 20.9704 73.5191 18.8612C73.0215 17.1012 72.5226 15.5645 72.0541 14.2494C77.9857 17.9163 82.9365 23.0183 86.422 29.0708C85.1607 28.6439 83.7136 28.1949 82.0795 27.7469ZM97 50C97 75.9574 75.9574 97 50 97C24.0426 97 3 75.9574 3 50C3 24.0426 24.0426 3 50 3C75.9574 3 97 24.0426 97 50Z" fill="black"/>
<path fill-rule="evenodd" clip-rule="evenodd" d="M73.5403 36.8351L36.8351 27L27 63.7052L63.7052 73.5403L73.5403 36.8351ZM54.1639 48.0221L48.0221 46.3765L46.3765 52.5182L52.5182 54.1639L54.1639 48.0221Z" fill="black"/>
</svg>
