<svg width="57" height="60" viewBox="0 0 57 60" fill="none" xmlns="http://www.w3.org/2000/svg">
<g clip-path="url(#clip0_7_20)">
<path fill-rule="evenodd" clip-rule="evenodd" d="M0 12.1724H5.8241C5.8241 12.1724 11.8804 12.1882 19.2631 12.1882C28.026 12.1882 32.8514 12.1973 33.1619 12.2143C36.0857 12.3747 38.6143 13.1546 40.6673 14.5289C42.845 15.9867 44.3929 18.0959 45.1074 20.5788C45.9269 23.4267 45.7687 26.5644 44.6771 29.1155C43.255 32.439 40.4573 34.7224 36.5044 35.7859C36.0291 35.9138 34.8218 36.1689 34.6919 36.1689C34.6541 36.1689 34.627 36.1785 34.6318 36.1901C34.6517 36.2396 49.8846 52.3956 49.9112 52.3956C49.9539 52.3956 53.3522 56.008 53.3522 56.008L57.3042 59.9572L0 59.9573V12.1724Z" fill="white"/>
<path fill-rule="evenodd" clip-rule="evenodd" d="M2.27888 18.447H-1.34728C-1.34728 18.447 -1.38335 24.8991 -1.61673 28.004C-1.66121 28.5957 -3.36777 33.426 -3.3233 34.0177C-3.19042 35.7853 -6.26247 38.6181 -5.92805 40.1211C-4.87069 44.8731 -9.6623 51.653 -6.46693 55.3797C-5.90877 56.0306 -3.99478 62.6974 -3.3233 63.368C-2.65181 64.0385 10.5754 62.5413 11.2273 63.0987C14.9591 66.2897 18.5942 62.0428 23.3528 63.0987C24.8579 63.4327 24.5467 60.7221 26.3168 60.8548C26.9093 60.8992 31.5625 60.8992 32.155 60.8548C33.6728 60.741 35.6432 62.1841 36.9154 61.9319C39.5504 61.4094 48.3223 59.9572 48.3223 59.9572L44.7114 56.1121C44.7114 56.1121 40.8702 52.0014 36.1754 47.0276C31.4806 42.0538 27.5258 37.8618 27.387 37.712C26.6537 36.9213 26.2292 36.1745 26.0531 35.3649C26.0045 35.1416 25.996 35.0225 25.995 34.5513C25.9941 34.0645 26.001 33.9675 26.054 33.7297C26.2191 32.9882 26.5736 32.4323 27.1128 32.0694C27.7901 31.6134 28.4216 31.4697 31.0461 31.1743C32.7419 30.9835 33.5486 30.8269 34.5428 30.4954C36.2822 29.9154 37.5178 29.073 38.2343 27.9785C38.7899 27.1297 39.1204 26.1494 39.224 25.0421C39.2625 24.6313 39.2411 23.7261 39.1845 23.3725C39.0238 22.3678 38.7315 21.5934 38.2435 20.8793C37.7558 20.1656 37.1088 19.6231 36.2399 19.1994C35.4682 18.823 34.7 18.6138 33.5272 18.4607C33.2165 18.4201 32.1086 18.4165 17.7483 18.409C2.91929 18.4013 2.27888 18.447 2.27888 18.447ZM20.1647 21.7546C20.7914 21.8665 21.3684 22.1845 21.8422 22.6789C22.1712 23.0222 22.3953 23.3939 22.5463 23.8464C22.7001 24.3076 22.6901 23.5719 22.6901 34.423C22.6901 45.3468 22.7019 44.5359 22.5355 45.0319C22.1808 46.0891 21.3225 46.8468 20.1962 47.097C19.9159 47.1592 19.2759 47.1598 18.9877 47.098C18.3484 46.961 17.8474 46.6906 17.3905 46.2359C16.94 45.7876 16.6563 45.2579 16.5269 44.6231C16.4832 44.409 16.4809 43.9001 16.4809 34.423C16.4809 24.873 16.483 24.4388 16.5278 24.2299C16.6641 23.5942 16.9354 23.0761 17.3551 22.6497C17.6384 22.362 17.8674 22.197 18.2293 22.02C18.8441 21.7193 19.4791 21.6322 20.1647 21.7546Z" fill="#272B30"/>
</g>
<defs>
<clipPath id="clip0_7_20">
<rect width="57" height="60" fill="white"/>
</clipPath>
</defs>
</svg>
