<?xml version="1.0" encoding="utf-8"?>
<!-- Generator: Adobe Illustrator 26.0.1, SVG Export Plug-In . SVG Version: 6.00 Build 0)  -->
<svg version="1.1" id="Layer_1" xmlns="http://www.w3.org/2000/svg" xmlns:xlink="http://www.w3.org/1999/xlink" x="0px" y="0px"
	 viewBox="0 0 100 100" style="enable-background:new 0 0 100 100;" xml:space="preserve">
<style type="text/css">
	.st0{fill:none;stroke:#000000;stroke-width:5.0667;}
</style>
<path class="st0" d="M19.6,15.5h20.3c2.8,0,5.1,2.3,5.1,5.1v20.3c0,2.8-2.3,5.1-5.1,5.1H19.6c-2.8,0-5.1-2.3-5.1-5.1V20.6
	C14.5,17.8,16.8,15.5,19.6,15.5z"/>
<path d="M58.9,52.3h21.5c4.2,0,7.6,3.4,7.6,7.6v20.3c0,4.2-3.4,7.6-7.6,7.6H58.9c-4.2,0-7.6-3.4-7.6-7.6V59.9
	C51.3,55.7,54.7,52.3,58.9,52.3z"/>
<path class="st0" d="M59.5,15.5h20.3c2.8,0,5.1,2.3,5.1,5.1v20.3c0,2.8-2.3,5.1-5.1,5.1H59.5c-2.8,0-5.1-2.3-5.1-5.1V20.6
	C54.4,17.8,56.7,15.5,59.5,15.5z"/>
<path class="st0" d="M19.6,54.8h20.3c2.8,0,5.1,2.3,5.1,5.1v20.3c0,2.8-2.3,5.1-5.1,5.1H19.6c-2.8,0-5.1-2.3-5.1-5.1V59.9
	C14.5,57.1,16.8,54.8,19.6,54.8z"/>
</svg>
