<?xml version="1.0"?>
<svg xmlns="http://www.w3.org/2000/svg" version="1" viewBox="0 0 24 24" enable-background="new 0 0 24 24">
    <path d="M 12 3 C 6.4666667 3 2 7.4666667 2 13 C 2 15.233333 2.7940331 17.26175 4 18.90625 L 5.59375 17.71875 C 4.5997169 16.36325 4 14.766667 4 13 C 4 8.5333333 7.5333333 5 12 5 C 16.466667 5 20 8.5333333 20 13 C 20 14.766667 19.400283 16.36325 18.40625 17.71875 L 20 18.90625 C 21.205967 17.26175 22 15.233333 22 13 C 22 7.4666667 17.533333 3 12 3 z M 15.6875 7.90625 L 12.15625 11.4375 C 12.101946 11.43193 12.055775 11.40625 12 11.40625 C 11.116344 11.40625 10.40625 12.116344 10.40625 13 C 10.40625 13.883656 11.116344 14.59375 12 14.59375 C 12.883656 14.59375 13.59375 13.883656 13.59375 13 C 13.59375 12.944225 13.56807 12.898054 13.5625 12.84375 L 17.09375 9.3125 L 15.6875 7.90625 z"/>
</svg>
