<svg id="Layer_1" data-name="Layer 1" xmlns="http://www.w3.org/2000/svg" viewBox="0 0 26 26"><defs><style>.cls-1,.cls-2{fill:#393b3d;}.cls-1{fill-rule:evenodd;}</style></defs><path class="cls-1" d="M15.506,2.369a1.486,1.486,0,0,0,.819,1.353,10.519,10.519,0,0,1,5.4,11.222,12.7,12.7,0,0,1-2.775,5.919A4.683,4.683,0,0,1,14.5,22.688c-.217-.039-.249-.086-.269-.117l-.007-.009a3.241,3.241,0,0,1-.39-1.021c-.023-.085-.05-.2-.083-.328a13.822,13.822,0,0,0-.557-1.864,4.385,4.385,0,0,0-1.669-2.066,1.013,1.013,0,0,0-1.468.75h0c-.18.72.339,1.524.653,2.2a8.2,8.2,0,0,1,.443,1.432c.371,1.5.8,3.24,2.882,3.614,5.568,1,9.33-4.8,10.273-9.848A13.149,13.149,0,0,0,17.259,1.246a1.233,1.233,0,0,0-1.753,1.123Z"/><circle class="cls-2" cx="16.462" cy="8.682" r="1.643"/><circle class="cls-2" cx="17.776" cy="13.938" r="1.643"/><circle class="cls-2" cx="16.462" cy="19.195" r="1.643"/><path class="cls-2" d="M10.687,1.3,5.8,9.689a6.221,6.221,0,0,0-.733,1.95l-.7,3.62A1.638,1.638,0,0,0,7.3,16.535l2.17-2.981a6.254,6.254,0,0,0,.927-1.866L13.2,2.39A1.38,1.38,0,0,0,10.687,1.3Z"/><path class="cls-2" d="M5.289,22.078C4.727,23.369,2.532,24.461,2.17,24.3s-1.058-2.508-.5-3.8c.724-1.664,1.311-3.013,3.118-2.227S6.013,20.414,5.289,22.078Z"/></svg>