<svg id="Layer_1" data-name="Layer 1" xmlns="http://www.w3.org/2000/svg" viewBox="0 0 240.82019 240.82019"><defs><style>.cls-1{fill:#b8b8b8;stroke:#b8b8b8;stroke-miterlimit:10;stroke-width:5px;}</style></defs><path class="cls-1" d="M158.89182,39.74018a117.9101,117.9101,0,1,0,117.9101,117.9101A117.91011,117.91011,0,0,0,158.89182,39.74018Zm0,212.18677a94.27668,94.27668,0,1,1,94.27668-94.27667A94.27668,94.27668,0,0,1,158.89182,251.927Z" transform="translate(-38.48173 -37.24018)"/><polygon class="cls-1" points="110.095 58.32 111.713 55.489 113.871 52.927 117.152 51.174 120.41 50.5 123.983 51.174 127.354 52.657 129.781 55.489 131.399 58.994 131.399 116.652 144.478 129.781 157.826 143.803 163.084 150.14 163.084 154.185 162.41 159.039 159.579 162.275 156.478 164.028 153.376 164.702 150.14 164.702 144.612 161.601 134.77 150.14 125.601 140.837 119.264 134.365 113.601 127.893 110.904 124.792 110.095 121.556 110.095 58.32"/></svg>