<svg xmlns="http://www.w3.org/2000/svg" viewBox="0 0 16.9 18.3"><defs><style>.cls-1{fill:#767879;}</style></defs><g id="Layer_2" data-name="Layer 2"><g id="navigation"><g id="trade"><path class="cls-1" d="M1.3,1.6,3,2.8,1.3,4l.4-.9.1-.3-.1-.3-.4-.9M.3,0A.27.27,0,0,0,0,.3H0A.37.37,0,0,0,.1.6l1,2.2L.1,5c-.1.1-.1.1-.1.2a.27.27,0,0,0,.3.3H.6L4.4,2.7.6,0C.4.1.4,0,.3,0Z"/></g><g id="trade-2"><path class="cls-1" d="M1.4,7.9,3.1,9.1,1.4,10.3l.4-.9L2,9.1l-.3-.3-.3-.9M.4,6.3a.27.27,0,0,0-.3.3v.1A.37.37,0,0,0,.2,7l1,2.2-1,2.2c-.1.1-.1.1-.1.2a.27.27,0,0,0,.3.3H.6L4.4,9.1.6,6.4c-.1,0-.2,0-.2-.1Z"/></g><g id="trade-3"><path class="cls-1" d="M1.3,14.3,3,15.5,1.3,16.7l.4-.9.1-.3-.1-.3-.4-.9m-1-1.6A.27.27,0,0,0,0,13H0a.37.37,0,0,0,.1.3l1,2.2-1,2.3c-.1,0-.1.1-.1.2a.27.27,0,0,0,.3.3H.5l3.8-2.8L.5,12.8c-.1-.1-.1-.1-.2-.1Z"/></g><path class="cls-1" d="M15.9,1.8H5.9a1,1,0,0,0-1,.9v.1a1.06,1.06,0,0,0,.9,1H15.9a.94.94,0,0,0,1-1A1,1,0,0,0,15.9,1.8Z"/><path class="cls-1" d="M15.9,8.1H5.9a1,1,0,0,0-1,.9v.1a1.06,1.06,0,0,0,.9,1H15.9a.94.94,0,0,0,1-1A1,1,0,0,0,15.9,8.1Z"/><path class="cls-1" d="M15.9,14.5H5.9a1,1,0,0,0-1,.9v.1a1.06,1.06,0,0,0,.9,1H15.9a.94.94,0,0,0,1-1A1,1,0,0,0,15.9,14.5Z"/></g></g></svg>