<svg xmlns="http://www.w3.org/2000/svg" viewBox="0 0 16.88 18.29"><defs><style>.cls-1{fill:#bdbebe;}</style></defs><g id="Layer_2" data-name="Layer 2"><g id="navigation"><g id="trade"><path class="cls-1" d="M1.32,1.57,3,2.8,1.32,4l.4-.93.14-.3-.14-.3-.4-.93M.32,0A.31.31,0,0,0,0,.3v0A.36.36,0,0,0,.11.6l1,2.2L.11,5A.28.28,0,0,0,0,5.27a.3.3,0,0,0,.27.33h.2L4.29,2.84.5.11A.29.29,0,0,0,.32,0Z"/></g><g id="trade-2"><path class="cls-1" d="M1.36,7.9,3.07,9.13,1.36,10.37l.39-.94.15-.3-.15-.3L1.36,7.9m-1-1.57A.3.3,0,0,0,0,6.61v.06a.35.35,0,0,0,.1.26l1,2.2-1,2.24a.29.29,0,0,0-.1.23.3.3,0,0,0,.27.33H.5L4.33,9.16.54,6.44a.25.25,0,0,0-.18-.08Z"/></g><g id="trade-3"><path class="cls-1" d="M1.32,14.25,3,15.48,1.32,16.72l.4-.94.14-.3-.14-.29-.4-.94m-1-1.57A.31.31,0,0,0,0,13v0a.36.36,0,0,0,.11.26l1,2.2-1,2.25A.27.27,0,0,0,0,18a.31.31,0,0,0,.28.34H.47l3.82-2.77L.5,12.8a.23.23,0,0,0-.18-.08Z"/></g><path class="cls-1" d="M15.88,1.8h-10a1,1,0,0,0-1,.88V2.8a1.06,1.06,0,0,0,.9,1h10.1a1,1,0,0,0,0-2Z"/><path class="cls-1" d="M15.88,8.11h-10a1,1,0,0,0-1,.88v.12a1.06,1.06,0,0,0,.9,1h10.1a1,1,0,1,0,0-2Z"/><path class="cls-1" d="M15.88,14.48h-10a1,1,0,0,0-1,.88v.12a1.06,1.06,0,0,0,.9,1h10.1a1,1,0,0,0,0-2Z"/></g></g></svg>