<svg width="100" height="100" viewBox="0 0 100 100" fill="none" xmlns="http://www.w3.org/2000/svg">
<path d="M39.5587 40L42.3797 37.1791L53.2754 48.337L64.3391 36.6836L59.3452 31.5695L76.1428 31.5695V46.9116L71.6029 42.2625L59.1772 55.3107L53.2754 61.3545L42.3797 50.1966L37.3562 55.5586L31.0004 62.0674L24.6445 55.5586L26.7032 53.5" stroke="white" stroke-width="4" stroke-linecap="round" stroke-linejoin="round"/>
<path d="M26 45H31.5M37 45H31.5M31.5 45V39.5M31.5 45V50.5" stroke="white" stroke-width="5" stroke-linecap="round" stroke-linejoin="round"/>
<path d="M65 67.5H70.5M76 67.5H70.5M70.5 67.5V62M70.5 67.5V73" stroke="white" stroke-width="5" stroke-linecap="round" stroke-linejoin="round"/>
<path d="M69 17.5H72.5M76 17.5H72.5M72.5 17.5V14M72.5 17.5V21" stroke="white" stroke-width="4" stroke-linecap="round" stroke-linejoin="round"/>
<path d="M21.25 92.07C20.4567 92.07 19.78 91.9393 19.22 91.678C18.6693 91.4073 18.2213 91.0387 17.876 90.572C17.54 90.1053 17.2927 89.578 17.134 88.99C16.9753 88.3927 16.896 87.772 16.896 87.128V82.06H18.828V87.128C18.828 87.6787 18.9027 88.2013 19.052 88.696C19.2013 89.1907 19.4533 89.592 19.808 89.9C20.1627 90.208 20.6387 90.362 21.236 90.362C21.852 90.362 22.3373 90.208 22.692 89.9C23.0467 89.5827 23.2987 89.1767 23.448 88.682C23.5973 88.1873 23.672 87.6693 23.672 87.128V82.06H25.59V87.128C25.59 87.8093 25.506 88.4487 25.338 89.046C25.1793 89.6433 24.9227 90.1707 24.568 90.628C24.2227 91.076 23.7747 91.4307 23.224 91.692C22.6733 91.944 22.0153 92.07 21.25 92.07ZM27.536 92V82.06H31.75C32.2073 82.06 32.6273 82.1533 33.01 82.34C33.402 82.5267 33.738 82.7787 34.018 83.096C34.298 83.4133 34.5173 83.768 34.676 84.16C34.8347 84.552 34.914 84.9533 34.914 85.364C34.914 85.924 34.7833 86.456 34.522 86.96C34.2607 87.464 33.8967 87.8747 33.43 88.192C32.9727 88.5093 32.436 88.668 31.82 88.668H29.468V92H27.536ZM29.468 86.974H31.708C32.0627 86.974 32.3567 86.8293 32.59 86.54C32.8327 86.2413 32.954 85.8493 32.954 85.364C32.954 84.8507 32.8187 84.454 32.548 84.174C32.2773 83.894 31.9693 83.754 31.624 83.754H29.468V86.974ZM40.3887 92.07C39.7353 92.07 39.124 91.9393 38.5547 91.678C37.9853 91.4167 37.4813 91.0573 37.0427 90.6C36.6133 90.1333 36.2773 89.592 36.0347 88.976C35.792 88.36 35.6707 87.6927 35.6707 86.974C35.6707 86.2927 35.792 85.6533 36.0347 85.056C36.2773 84.4493 36.618 83.9173 37.0567 83.46C37.4953 83.0027 38.0087 82.6433 38.5967 82.382C39.1847 82.1207 39.824 81.99 40.5147 81.99C41.4387 81.99 42.2367 82.1907 42.9087 82.592C43.5807 82.984 44.0847 83.5067 44.4207 84.16L42.9787 85.224C42.7267 84.7387 42.372 84.3653 41.9147 84.104C41.4667 83.8333 40.9767 83.698 40.4447 83.698C39.8847 83.698 39.39 83.852 38.9607 84.16C38.5407 84.468 38.2093 84.874 37.9667 85.378C37.7333 85.882 37.6167 86.4327 37.6167 87.03C37.6167 87.6553 37.7427 88.22 37.9947 88.724C38.2467 89.228 38.592 89.6293 39.0307 89.928C39.4787 90.2173 39.9873 90.362 40.5567 90.362C41.518 90.362 42.386 89.9093 43.1607 89.004V88.304H41.1587V86.89H44.7567V92H43.1607V90.88C42.358 91.6733 41.434 92.07 40.3887 92.07ZM46.4032 92V82.06H50.7992C51.2565 82.06 51.6765 82.1533 52.0592 82.34C52.4512 82.5267 52.7872 82.7787 53.0672 83.096C53.3565 83.4133 53.5759 83.768 53.7252 84.16C53.8839 84.552 53.9632 84.9533 53.9632 85.364C53.9632 85.9987 53.7999 86.582 53.4732 87.114C53.1559 87.646 52.7219 88.0287 52.1712 88.262L54.4392 92H52.3112L50.2672 88.668H48.3352V92H46.4032ZM48.3352 86.974H50.7572C51.1212 86.974 51.4199 86.82 51.6532 86.512C51.8959 86.1947 52.0172 85.812 52.0172 85.364C52.0172 85.056 51.9519 84.7807 51.8212 84.538C51.6905 84.2953 51.5225 84.104 51.3172 83.964C51.1212 83.824 50.9065 83.754 50.6732 83.754H48.3352V86.974ZM58.4157 82.06H60.3757L64.0297 92H62.0417L61.1177 89.522H57.6457L56.7357 92H54.7477L58.4157 82.06ZM60.7677 88.164L59.3957 84.062L57.9677 88.164H60.7677ZM65.12 92V82.06H68.732C69.8147 82.06 70.72 82.284 71.448 82.732C72.176 83.1707 72.722 83.768 73.086 84.524C73.45 85.2707 73.632 86.1013 73.632 87.016C73.632 88.024 73.4313 88.9013 73.03 89.648C72.6287 90.3947 72.0593 90.9733 71.322 91.384C70.5847 91.7947 69.7213 92 68.732 92H65.12ZM71.686 87.016C71.686 86.372 71.5693 85.8073 71.336 85.322C71.1027 84.8273 70.7667 84.4447 70.328 84.174C69.8893 83.894 69.3573 83.754 68.732 83.754H67.052V90.306H68.732C69.3667 90.306 69.9033 90.166 70.342 89.886C70.7807 89.5967 71.112 89.2047 71.336 88.71C71.5693 88.206 71.686 87.6413 71.686 87.016ZM82.0435 90.306V92H75.1415V82.06H81.9175V83.754H77.0735V86.148H81.2595V87.716H77.0735V90.306H82.0435Z" fill="white"/>
</svg>
